<svg width="36" height="36" viewBox="0 0 36 36" fill="none" xmlns="http://www.w3.org/2000/svg">
<line x1="4" y1="34.5" x2="32" y2="34.5" stroke="#252422" stroke-width="3"/>
<path d="M10.3125 3H6.1875C5.8078 3 5.5 3.67157 5.5 4.5V28.5C5.5 29.3284 5.8078 30 6.1875 30H10.3125C10.6922 30 11 29.3284 11 28.5V4.5C11 3.67157 10.6922 3 10.3125 3Z" stroke="#252422" stroke-width="3" stroke-linecap="round" stroke-linejoin="round"/>
<path d="M19.8125 3H15.6875C15.3078 3 15 3.67157 15 4.5V28.5C15 29.3284 15.3078 30 15.6875 30H19.8125C20.1922 30 20.5 29.3284 20.5 28.5V4.5C20.5 3.67157 20.1922 3 19.8125 3Z" stroke="#252422" stroke-width="3" stroke-linecap="round" stroke-linejoin="round"/>
<path d="M29.8125 3H25.6875C25.3078 3 25 3.67157 25 4.5V28.5C25 29.3284 25.3078 30 25.6875 30H29.8125C30.1922 30 30.5 29.3284 30.5 28.5V4.5C30.5 3.67157 30.1922 3 29.8125 3Z" stroke="#252422" stroke-width="3" stroke-linecap="round" stroke-linejoin="round"/>
</svg>
