<svg width="36" height="36" viewBox="0 0 36 36" fill="none" xmlns="http://www.w3.org/2000/svg">
<path d="M18 33C9.7155 33 3 26.2845 3 18C3 9.7155 9.7155 3 18 3C26.2845 3 33 9.7155 33 18C33 26.2845 26.2845 33 18 33ZM14.565 29.5005C13.0851 26.3615 12.2278 22.9653 12.0405 19.5H6.093C6.38524 21.8082 7.34138 23.9819 8.84529 25.7572C10.3492 27.5324 12.3362 28.8328 14.565 29.5005ZM15.045 19.5C15.2715 23.1585 16.317 26.595 18 29.628C19.7287 26.5149 20.7384 23.0543 20.955 19.5H15.045ZM29.907 19.5H23.9595C23.7722 22.9653 22.9149 26.3615 21.435 29.5005C23.6638 28.8328 25.6508 27.5324 27.1547 25.7572C28.6586 23.9819 29.6148 21.8082 29.907 19.5ZM6.093 16.5H12.0405C12.2278 13.0347 13.0851 9.63853 14.565 6.4995C12.3362 7.16716 10.3492 8.46757 8.84529 10.2428C7.34138 12.0181 6.38524 14.1918 6.093 16.5ZM15.0465 16.5H20.9535C20.7374 12.9459 19.7282 9.4852 18 6.372C16.2713 9.48508 15.2616 12.9457 15.045 16.5M21.4335 6.4995C22.9139 9.63842 23.7717 13.0346 23.9595 16.5H29.907C29.6148 14.1918 28.6586 12.0181 27.1547 10.2428C25.6508 8.46757 23.6638 7.16716 21.435 6.4995" fill="#252422"/>
</svg>
