<svg width="36" height="36" viewBox="0 0 36 36" fill="none" xmlns="http://www.w3.org/2000/svg">
<path fill-rule="evenodd" clip-rule="evenodd" d="M16.2 3.975C16.7193 3.58553 17.3509 3.375 18 3.375C18.6491 3.375 19.2807 3.58553 19.8 3.975L30.3 11.85C30.6726 12.1294 30.975 12.4918 31.1833 12.9084C31.3916 13.3249 31.5 13.7843 31.5 14.25V28.5C31.5 29.2956 31.1839 30.0587 30.6213 30.6213C30.0587 31.1839 29.2956 31.5 28.5 31.5H21.15C20.7124 31.5 20.2927 31.3262 19.9833 31.0167C19.6738 30.7073 19.5 30.2876 19.5 29.85V21C19.5 20.6022 19.342 20.2206 19.0607 19.9393C18.7794 19.658 18.3978 19.5 18 19.5C17.6022 19.5 17.2206 19.658 16.9393 19.9393C16.658 20.2206 16.5 20.6022 16.5 21V29.85C16.5 30.0667 16.4573 30.2812 16.3744 30.4814C16.2915 30.6816 16.1699 30.8635 16.0167 31.0167C15.8635 31.1699 15.6816 31.2915 15.4814 31.3744C15.2812 31.4573 15.0667 31.5 14.85 31.5H7.5C6.70435 31.5 5.94129 31.1839 5.37868 30.6213C4.81607 30.0587 4.5 29.2956 4.5 28.5V14.25C4.5 13.7843 4.60844 13.3249 4.81672 12.9084C5.025 12.4918 5.32741 12.1294 5.7 11.85L16.2 3.975ZM18 6.375L7.5 14.25V28.5H13.5V21C13.5 19.8065 13.9741 18.6619 14.818 17.818C15.6619 16.9741 16.8065 16.5 18 16.5C19.1935 16.5 20.3381 16.9741 21.182 17.818C22.0259 18.6619 22.5 19.8065 22.5 21V28.5H28.5V14.25L18 6.375Z" fill="#252422"/>
</svg>
