<svg width="36" height="36" viewBox="0 0 36 36" fill="none" xmlns="http://www.w3.org/2000/svg">
<path d="M33.0048 25.7472V10.4362C33.0062 10.2391 32.9591 10.0448 32.8676 9.87035C32.7413 9.59807 32.5226 9.37937 32.2504 9.25311L18.5339 3.11499C18.3669 3.03921 18.1857 3 18.0024 3C17.819 3 17.6378 3.03921 17.4709 3.11499L3.75441 9.25311C3.5338 9.36412 3.34727 9.53264 3.21448 9.74086C3.0817 9.94909 3.0076 10.1893 3 10.4362V25.5586C3.01282 25.8041 3.08905 26.0422 3.22126 26.2495C3.35348 26.4568 3.53716 26.6264 3.75441 26.7416L17.4709 32.8797C17.6369 32.9589 17.8185 33 18.0024 33C18.1863 33 18.3679 32.9589 18.5339 32.8797L32.2504 26.7416C32.4484 26.6509 32.6209 26.5127 32.7525 26.3392C32.8841 26.1657 32.9708 25.9623 33.0048 25.7472ZM5.57184 12.4079L16.7165 17.4144V29.7249L5.57184 24.7356V12.4079ZM19.2883 17.4144L30.4329 12.4079V24.7356L19.2883 29.7249V17.4144ZM18.0367 5.68682L28.6155 10.4362L18.0367 15.1683L7.45785 10.4362L18.0367 5.68682Z" fill="#252422"/>
</svg>
