<svg width="142" height="69" viewBox="0 0 142 69" fill="none" xmlns="http://www.w3.org/2000/svg">
<path d="M120.85 59.4072V37.2605H127.189L127.398 41.7649L126.063 42.2654C126.369 41.2645 126.911 40.3608 127.69 39.5544C128.496 38.7203 129.455 38.053 130.567 37.5525C131.68 37.052 132.847 36.8018 134.071 36.8018C135.739 36.8018 137.143 37.1493 138.283 37.8444C139.423 38.5118 140.285 39.5266 140.869 40.8891C141.453 42.2237 141.745 43.8642 141.745 45.8106V59.4072H135.03V46.3528C135.03 45.463 134.905 44.7262 134.655 44.1423C134.405 43.5584 134.015 43.1274 133.487 42.8493C132.986 42.5435 132.361 42.4045 131.61 42.4323C131.026 42.4323 130.484 42.5296 129.984 42.7242C129.483 42.891 129.052 43.1552 128.691 43.5166C128.329 43.8503 128.037 44.2396 127.815 44.6845C127.62 45.1293 127.523 45.6159 127.523 46.1442V59.4072H124.228C123.449 59.4072 122.782 59.4072 122.226 59.4072C121.67 59.4072 121.211 59.4072 120.85 59.4072Z" fill="#ffffff"/>
<path d="M103.084 68.9999C101.277 68.9999 99.4697 68.7357 97.6624 68.2074C95.8828 67.6791 94.437 66.9979 93.3248 66.1638L95.6604 61.4925C96.2443 61.8818 96.8838 62.2155 97.5789 62.4935C98.3019 62.7994 99.0526 63.0357 99.8311 63.2025C100.61 63.3694 101.402 63.4528 102.208 63.4528C103.627 63.4528 104.78 63.2442 105.67 62.8272C106.56 62.4101 107.227 61.7706 107.672 60.9086C108.117 60.0745 108.339 59.0179 108.339 57.7389V54.0269L109.632 54.2354C109.438 55.153 108.951 55.9872 108.173 56.7379C107.422 57.4886 106.49 58.1003 105.378 58.573C104.266 59.0179 103.084 59.2403 101.833 59.2403C99.8311 59.2403 98.0377 58.7815 96.4528 57.864C94.8958 56.9186 93.6584 55.6257 92.7409 53.9852C91.8511 52.3169 91.4062 50.3984 91.4062 48.2296C91.4062 46.0052 91.8511 44.0449 92.7409 42.3488C93.6306 40.6249 94.8541 39.2764 96.4111 38.3032C97.9682 37.3022 99.7199 36.8018 101.666 36.8018C102.5 36.8018 103.293 36.8991 104.044 37.0937C104.822 37.2883 105.531 37.5525 106.171 37.8862C106.838 38.192 107.422 38.5674 107.922 39.0123C108.451 39.4293 108.868 39.8881 109.174 40.3886C109.507 40.8891 109.73 41.4035 109.841 41.9318L108.465 42.2654L108.715 37.2605H115.054V57.6137C115.054 59.4211 114.776 61.0199 114.22 62.4101C113.692 63.8281 112.899 65.0238 111.843 65.9969C110.814 66.9979 109.563 67.7486 108.089 68.2491C106.616 68.7496 104.947 68.9999 103.084 68.9999ZM103.251 54.0686C104.336 54.0686 105.267 53.8323 106.046 53.3596C106.852 52.8591 107.464 52.1779 107.881 51.3159C108.326 50.454 108.548 49.4391 108.548 48.2713C108.548 47.1035 108.326 46.0886 107.881 45.2267C107.464 44.3369 106.852 43.6557 106.046 43.183C105.267 42.6825 104.336 42.4323 103.251 42.4323C102.195 42.4323 101.277 42.6825 100.498 43.183C99.7199 43.6557 99.1082 44.3369 98.6633 45.2267C98.2463 46.0886 98.0377 47.1035 98.0377 48.2713C98.0377 49.4391 98.2463 50.454 98.6633 51.3159C99.1082 52.1779 99.7199 52.8591 100.498 53.3596C101.277 53.8323 102.195 54.0686 103.251 54.0686Z" fill="#ffffff"/>
<path d="M80.0072 59.4076V37.261H86.6803V59.4076H80.0072ZM83.3438 32.8817C82.0925 32.8817 81.1055 32.5898 80.3825 32.0059C79.6874 31.3942 79.3398 30.5322 79.3398 29.42C79.3398 28.419 79.7013 27.5988 80.4242 26.9593C81.1472 26.3198 82.1203 26 83.3438 26C84.595 26 85.5681 26.3059 86.2633 26.9176C86.9584 27.5015 87.306 28.3356 87.306 29.42C87.306 30.4488 86.9445 31.2829 86.2216 31.9224C85.5264 32.562 84.5672 32.8817 83.3438 32.8817Z" fill="#ffffff"/>
<path d="M66.4456 59.8242C64.2769 59.8242 62.3583 59.4767 60.69 58.7815C59.0495 58.0864 57.7427 57.155 56.7695 55.9871L60.8151 52.4837C61.6771 53.3457 62.6503 53.9852 63.7347 54.4023C64.8191 54.7915 65.8478 54.9862 66.821 54.9862C67.2103 54.9862 67.5578 54.9445 67.8637 54.8611C68.1696 54.7776 68.4198 54.6664 68.6144 54.5274C68.8369 54.3606 69.0037 54.1798 69.1149 53.9852C69.2261 53.7628 69.2818 53.5125 69.2818 53.2345C69.2818 52.6784 69.0315 52.2474 68.531 51.9415C68.2808 51.8025 67.8637 51.6357 67.2798 51.4411C66.6959 51.2464 65.9452 51.024 65.0276 50.7737C63.7208 50.4401 62.5808 50.0508 61.6076 49.6059C60.6622 49.1332 59.8837 48.591 59.272 47.9793C58.7159 47.3954 58.2849 46.7559 57.979 46.0608C57.6732 45.3379 57.5203 44.5315 57.5203 43.6418C57.5203 42.613 57.7566 41.6815 58.2293 40.8474C58.7298 40.0132 59.3832 39.2903 60.1895 38.6786C61.0237 38.0669 61.9691 37.6081 63.0256 37.3022C64.11 36.9686 65.2222 36.8018 66.3622 36.8018C67.5856 36.8018 68.7535 36.9408 69.8657 37.2188C70.9778 37.4969 72.0066 37.8861 72.952 38.3866C73.9252 38.8871 74.7871 39.4849 75.5379 40.1801L72.0344 44.1006C71.5339 43.6279 70.9639 43.2108 70.3244 42.8493C69.7127 42.4601 69.0732 42.1542 68.4059 41.9318C67.7386 41.7093 67.1269 41.5981 66.5708 41.5981C66.1537 41.5981 65.7783 41.6398 65.4447 41.7232C65.1388 41.7788 64.8747 41.8901 64.6522 42.0569C64.4298 42.1959 64.263 42.3766 64.1517 42.5991C64.0405 42.7937 63.9849 43.0301 63.9849 43.3081C63.9849 43.5862 64.0544 43.8503 64.1934 44.1006C64.3603 44.3508 64.5827 44.5593 64.8608 44.7262C65.1388 44.893 65.5837 45.0876 66.1954 45.3101C66.8071 45.5047 67.6413 45.7549 68.6978 46.0608C70.0047 46.4223 71.1308 46.8254 72.0761 47.2703C73.0215 47.7152 73.7722 48.2435 74.3283 48.8552C74.7732 49.3279 75.1069 49.884 75.3293 50.5235C75.5518 51.1352 75.663 51.8025 75.663 52.5254C75.663 53.9435 75.2598 55.2086 74.4535 56.3208C73.6749 57.4052 72.5905 58.2672 71.2003 58.9067C69.81 59.5184 68.2252 59.8242 66.4456 59.8242Z" fill="#ffffff"/>
<path d="M45.0951 59.8242C42.6483 59.8242 40.5212 59.3376 38.7139 58.3645C36.9066 57.3635 35.5024 56.015 34.5015 54.3189C33.5005 52.595 33 50.6347 33 48.4381C33 46.742 33.278 45.1849 33.8341 43.7669C34.3902 42.3488 35.1688 41.1254 36.1698 40.0966C37.1707 39.0401 38.3524 38.2337 39.7149 37.6776C41.1051 37.0937 42.6205 36.8018 44.261 36.8018C45.8181 36.8018 47.2361 37.0798 48.5151 37.6359C49.822 38.192 50.9481 38.9705 51.8934 39.9715C52.8388 40.9725 53.5617 42.1542 54.0622 43.5166C54.5627 44.8791 54.7852 46.3667 54.7295 47.9793L54.6878 49.7728H37.0456L36.0863 46.0191H49.2659L48.5569 46.8115V45.9774C48.5012 45.2823 48.2788 44.6705 47.8895 44.1423C47.5281 43.5862 47.0415 43.1552 46.4298 42.8493C45.8181 42.5435 45.1229 42.3905 44.3444 42.3905C43.26 42.3905 42.3286 42.613 41.55 43.0579C40.7993 43.4749 40.2293 44.1006 39.84 44.9347C39.4507 45.741 39.2561 46.742 39.2561 47.9376C39.2561 49.161 39.5064 50.2315 40.0068 51.1491C40.5351 52.0389 41.2859 52.734 42.259 53.2345C43.26 53.735 44.4417 53.9852 45.8042 53.9852C46.7495 53.9852 47.5837 53.8462 48.3066 53.5681C49.0573 53.2901 49.8637 52.8174 50.7256 52.1501L53.8537 56.5711C52.9917 57.3218 52.0742 57.9335 51.101 58.4062C50.1278 58.8789 49.1269 59.2264 48.0981 59.4489C47.0971 59.6991 46.0961 59.8242 45.0951 59.8242Z" fill="#ffffff"/>
<path d="M8 60V32H19.4275C21.4295 32 23.2626 32.3467 24.9267 33.04C26.5907 33.7067 28.0208 34.6667 29.2168 35.92C30.4389 37.1733 31.3749 38.6533 32.025 40.36C32.675 42.0667 33 43.9467 33 46C33 48.0533 32.675 49.9467 32.025 51.68C31.3749 53.3867 30.4389 54.8667 29.2168 56.12C28.0208 57.3467 26.5907 58.3067 24.9267 59C23.2626 59.6667 21.4295 60 19.4275 60H8ZM14.6303 55.36L13.7332 54H19.2324C20.3245 54 21.2995 53.8133 22.1576 53.44C23.0156 53.04 23.7436 52.4933 24.3417 51.8C24.9657 51.1067 25.4467 50.2667 25.7847 49.28C26.1227 48.2933 26.2917 47.2 26.2917 46C26.2917 44.8 26.1227 43.7067 25.7847 42.72C25.4467 41.7333 24.9657 40.8933 24.3417 40.2C23.7436 39.5067 23.0156 38.9733 22.1576 38.6C21.2995 38.2 20.3245 38 19.2324 38H13.6162L14.6303 36.72V55.36Z" fill="#ffffff"/>
<path d="M70.68 31.116L66.612 24.96L64.74 22.332L57.18 12H64.092L68.016 17.868L70.068 20.676L77.52 31.116H70.68ZM57 31.116L64.704 20.388L67.8 24.096L63.804 31.116H57ZM69.636 22.8L66.576 19.128L70.356 12H77.16L69.636 22.8Z" fill="#ffffff"/>
<path d="M33 31V0H54.5582V6.42143H40.2892V24.5786H55V31H33ZM36.5341 18.29V12.1786H52.5703V18.29H36.5341Z" fill="#ffffff"/>
<path d="M12.3295 31L0 0H7.79403L13.7386 15.81C14.0909 16.7252 14.3845 17.5224 14.6193 18.2014C14.8835 18.8805 15.1037 19.5152 15.2798 20.1057C15.4853 20.6962 15.6615 21.3014 15.8082 21.9214C15.9844 22.5119 16.1752 23.191 16.3807 23.9586H15.0156C15.2505 22.9548 15.4853 22.069 15.7202 21.3014C15.955 20.5043 16.2192 19.6924 16.5128 18.8657C16.8063 18.0095 17.1733 16.991 17.6136 15.81L23.3381 0H31L18.5824 31H12.3295Z" fill="#ffffff"/>
</svg>
