<svg width="5312" height="4167" viewBox="0 0 5312 4167" fill="none" xmlns="http://www.w3.org/2000/svg">
<path d="M5312 3687.07H0V3689.73H5312V3687.07Z" fill="#EBEBEB"/>
<path d="M4779.74 3858.01H3955.63V3860.67H4779.74V3858.01Z" fill="#EBEBEB"/>
<path d="M3541.3 3820.83H2953.47V3823.48H3541.3V3820.83Z" fill="#EBEBEB"/>
<path d="M4417.25 3759.42H3790.22V3762.07H4417.25V3759.42Z" fill="#EBEBEB"/>
<path d="M692.154 3777.27H557.335V3779.92H692.154V3777.27Z" fill="#EBEBEB"/>
<path d="M1547.6 3777.27H786.813V3779.92H1547.6V3777.27Z" fill="#EBEBEB"/>
<path d="M2337.28 3822.1H1839.65V3824.76H2337.28V3822.1Z" fill="#EBEBEB"/>
<path d="M2517.89 3213.24H466.5C450.429 3213.21 435.027 3206.81 423.673 3195.44C412.32 3184.06 405.943 3168.65 405.943 3152.58V268.905C406.083 252.927 412.521 237.649 423.86 226.39C435.198 215.131 450.521 208.801 466.5 208.773H2517.89C2533.98 208.773 2549.41 215.165 2560.78 226.541C2572.16 237.918 2578.55 253.348 2578.55 269.436V3152.58C2578.55 3168.67 2572.16 3184.1 2560.78 3195.47C2549.41 3206.85 2533.98 3213.24 2517.89 3213.24ZM466.5 210.898C451.134 210.926 436.407 217.05 425.551 227.926C414.696 238.801 408.599 253.539 408.599 268.905V3152.58C408.599 3167.94 414.696 3182.68 425.551 3193.56C436.407 3204.43 451.134 3210.56 466.5 3210.58H2517.89C2533.26 3210.56 2548 3204.44 2558.87 3193.56C2569.75 3182.69 2575.87 3167.95 2575.89 3152.58V268.905C2575.87 253.529 2569.75 238.791 2558.87 227.919C2548 217.047 2533.26 210.926 2517.89 210.898H466.5Z" fill="#EBEBEB"/>
<path d="M4815.97 3213.24H2764.47C2748.39 3213.21 2732.98 3206.81 2721.61 3195.44C2710.24 3184.07 2703.84 3168.66 2703.81 3152.58V268.905C2703.98 252.917 2710.44 237.64 2721.79 226.384C2733.15 215.128 2748.48 208.801 2764.47 208.773H4815.97C4831.93 208.829 4847.22 215.172 4858.54 226.428C4869.85 237.684 4876.28 252.945 4876.42 268.905V3152.58C4876.42 3168.63 4870.05 3184.03 4858.72 3195.4C4847.39 3206.77 4832.02 3213.18 4815.97 3213.24ZM2764.47 210.898C2749.09 210.926 2734.36 217.047 2723.48 227.919C2712.61 238.791 2706.49 253.529 2706.46 268.905V3152.58C2706.49 3167.95 2712.61 3182.69 2723.48 3193.56C2734.36 3204.44 2749.09 3210.56 2764.47 3210.58H4815.97C4831.34 3210.56 4846.08 3204.44 4856.95 3193.56C4867.82 3182.69 4873.94 3167.95 4873.97 3152.58V268.905C4873.94 253.529 4867.82 238.791 4856.95 227.919C4846.08 217.047 4831.34 210.926 4815.97 210.898H2764.47Z" fill="#EBEBEB"/>
<path d="M3010.31 3687.07H3415.72V2074.98H3010.31V3687.07Z" fill="#E6E6E6"/>
<path d="M3194 3687.07H3010.31V3464.5H3386.51L3194 3687.07Z" fill="#FAFAFA"/>
<path d="M4197.86 3687.07H4603.27V2074.98H4197.86V3687.07Z" fill="#E6E6E6"/>
<path d="M3010.31 3610.47H4358.18V2074.98H3010.31V3610.47Z" fill="#FAFAFA"/>
<path d="M4174.49 3687.07H4358.18V3464.5H3981.88L4174.49 3687.07Z" fill="#FAFAFA"/>
<path d="M3152.88 3031.36H4215.71V2647.09H3152.88V3031.36Z" fill="#F0F0F0"/>
<path d="M3152.88 3497.75H4215.71V3113.48H3152.88V3497.75Z" fill="#F0F0F0"/>
<path d="M3877.23 2688.31H3491.26C3474.35 2688.31 3458.14 2681.59 3446.19 2669.64C3434.23 2657.68 3427.51 2641.47 3427.51 2624.56V2613.94H3940.65V2624.56C3940.65 2641.41 3933.98 2657.58 3922.1 2669.52C3910.21 2681.47 3894.08 2688.22 3877.23 2688.31Z" fill="#FAFAFA"/>
<path d="M3152.88 2564.96H4215.71V2180.69H3152.88V2564.96Z" fill="#F0F0F0"/>
<path d="M3877.23 2221.92H3491.26C3474.35 2221.92 3458.14 2215.2 3446.19 2203.24C3434.23 2191.29 3427.51 2175.08 3427.51 2158.17V2147.55H3940.65V2158.17C3940.65 2175.02 3933.98 2191.19 3922.1 2203.13C3910.21 2215.08 3894.08 2221.83 3877.23 2221.92Z" fill="#FAFAFA"/>
<path d="M3877.23 3154.7H3491.26C3474.35 3154.7 3458.14 3147.99 3446.19 3136.03C3434.23 3124.08 3427.51 3107.86 3427.51 3090.96V3080.33H3940.65V3090.96C3940.65 3107.81 3933.98 3123.97 3922.1 3135.92C3910.21 3147.86 3894.08 3154.62 3877.23 3154.7Z" fill="#FAFAFA"/>
<path d="M3936.19 1908.61C3969.13 1889.7 3934.28 1863.99 3978.69 1845.72C4023.1 1827.45 3984.96 1800.04 3986.55 1774.64C3988.14 1749.25 4045.83 1745.22 4062.3 1715.68C4069.21 1703.36 4061.13 1687.85 4049.34 1674.04C4024.37 1644.82 3955.95 1638.02 3918.88 1662.46C3917.11 1663.61 3915.41 1664.85 3913.78 1666.17C3881.05 1691.99 3913.14 1716.74 3876.7 1734.06C3840.26 1751.38 3774.81 1755.31 3776.94 1783.99C3779.06 1812.68 3729.56 1815.33 3703.21 1837.75C3686.95 1851.46 3699.28 1874.19 3711.28 1889.7C3722.37 1902.26 3737.32 1910.78 3753.78 1913.93C3797.34 1924.76 3883.29 1939.42 3936.19 1908.61Z" fill="#EBEBEB"/>
<path d="M4009.18 1977.35C4064.74 1963.54 4043.18 1922.21 4111.91 1912.44C4180.65 1902.66 4156.85 1858.26 4179.38 1827.45C4201.9 1796.64 4275.84 1808.22 4320.04 1776.77C4347.23 1757.33 4340.12 1720.46 4330.66 1695.07C4323.86 1676.8 4297.09 1663.2 4265.32 1662.45C4235.95 1661.07 4206.57 1665.06 4178.63 1674.25C4117.76 1696.45 4136.77 1735.87 4078.02 1746.81C4019.27 1757.75 3936.51 1743.52 3915.58 1779.53C3894.65 1815.55 3831.97 1804.5 3781.51 1824.36C3745.38 1838.6 3746.77 1878.87 3750.48 1900.43C3751.79 1905.76 3754.24 1910.73 3757.65 1915.02C3761.06 1919.31 3765.35 1922.82 3770.24 1925.29C3809.34 1948.98 3911.44 2001.68 4009.18 1977.35Z" fill="#E0E0E0"/>
<path d="M3964.77 1811.4C4001.21 1794.94 4039.14 1818.95 4076.43 1795.89C4113.72 1772.84 4153.98 1798.76 4196.9 1801.52C4239.83 1804.29 4254.81 1771.24 4306.76 1765.83C4330.14 1764.91 4353.41 1769.57 4374.64 1779.43C4420.22 1798.12 4421.6 1839.13 4375.28 1857.19L4368.38 1859.64C4320.46 1875.04 4283.38 1852.73 4249.07 1871.54C4214.75 1890.34 4199.35 1927.95 4151.01 1922.53C4102.67 1917.11 4091.51 1945.69 4050.19 1957.8C4024.8 1965.35 3988.36 1954.83 3964.03 1945.58C3956.72 1943.38 3949.92 1939.75 3944.03 1934.9C3938.14 1930.05 3933.27 1924.07 3929.71 1917.32C3918.24 1890.23 3906.13 1837.96 3964.77 1811.4Z" fill="#EBEBEB"/>
<path d="M3570.94 1845.72C3570.94 1845.72 3582.41 2074.99 4024.9 2074.99C4467.39 2074.99 4478.76 1845.72 4478.76 1845.72H3570.94Z" fill="#F5F5F5"/>
<path d="M869.256 2175.38H852.788C779.034 2175.38 719.245 2235.17 719.245 2308.92V3457.17C719.245 3530.92 779.034 3590.71 852.788 3590.71H869.256C943.01 3590.71 1002.8 3530.92 1002.8 3457.17V2308.92C1002.8 2235.17 943.01 2175.38 869.256 2175.38Z" fill="#F5F5F5"/>
<path d="M942.136 3543.43C916.777 3543.43 892.457 3533.36 874.525 3515.43C856.594 3497.5 846.52 3473.18 846.52 3447.82V2318.49C846.52 2293.13 856.594 2268.81 874.525 2250.88C892.457 2232.94 916.777 2222.87 942.136 2222.87C967.495 2222.87 991.815 2232.94 1009.75 2250.88C1027.68 2268.81 1037.75 2293.13 1037.75 2318.49V3447.71C1037.77 3460.28 1035.3 3472.72 1030.5 3484.33C1025.71 3495.95 1018.66 3506.5 1009.78 3515.39C1000.9 3524.28 990.359 3531.33 978.751 3536.15C967.144 3540.96 954.701 3543.43 942.136 3543.43Z" fill="#EBEBEB"/>
<path d="M1075.15 2175.38H1058.68C984.927 2175.38 925.138 2235.17 925.138 2308.92V3457.17C925.138 3530.92 984.927 3590.71 1058.68 3590.71H1075.15C1148.9 3590.71 1208.69 3530.92 1208.69 3457.17V2308.92C1208.69 2235.17 1148.9 2175.38 1075.15 2175.38Z" fill="#F5F5F5"/>
<path d="M1148.03 3543.43C1122.67 3543.43 1098.35 3533.36 1080.42 3515.43C1062.49 3497.5 1052.41 3473.18 1052.41 3447.82V2318.49C1052.41 2293.13 1062.49 2268.81 1080.42 2250.88C1098.35 2232.94 1122.67 2222.87 1148.03 2222.87C1173.39 2222.87 1197.71 2232.94 1215.64 2250.88C1233.57 2268.81 1243.65 2293.13 1243.65 2318.49V3447.71C1243.66 3460.28 1241.2 3472.72 1236.4 3484.33C1231.6 3495.95 1224.56 3506.5 1215.68 3515.39C1206.8 3524.28 1196.25 3531.33 1184.64 3536.15C1173.04 3540.96 1160.59 3543.43 1148.03 3543.43Z" fill="#EBEBEB"/>
<path d="M1281.04 2175.38H1264.57C1190.82 2175.38 1131.03 2235.17 1131.03 2308.92V3457.17C1131.03 3530.92 1190.82 3590.71 1264.57 3590.71H1281.04C1354.8 3590.71 1414.59 3530.92 1414.59 3457.17V2308.92C1414.59 2235.17 1354.8 2175.38 1281.04 2175.38Z" fill="#F5F5F5"/>
<path d="M1353.92 3543.43C1328.56 3543.43 1304.24 3533.36 1286.31 3515.43C1268.38 3497.5 1258.31 3473.18 1258.31 3447.82V2318.49C1258.31 2293.13 1268.38 2268.81 1286.31 2250.88C1304.24 2232.94 1328.56 2222.87 1353.92 2222.87C1379.28 2222.87 1403.6 2232.94 1421.53 2250.88C1439.46 2268.81 1449.54 2293.13 1449.54 2318.49V3447.71C1449.55 3460.28 1447.09 3472.72 1442.29 3484.33C1437.49 3495.95 1430.45 3506.5 1421.57 3515.39C1412.69 3524.28 1402.15 3531.33 1390.54 3536.15C1378.93 3540.96 1366.49 3543.43 1353.92 3543.43Z" fill="#EBEBEB"/>
<path d="M1487.04 2175.38H1470.57C1396.82 2175.38 1337.03 2235.17 1337.03 2308.92V3457.17C1337.03 3530.92 1396.82 3590.71 1470.57 3590.71H1487.04C1560.8 3590.71 1620.58 3530.92 1620.58 3457.17V2308.92C1620.58 2235.17 1560.8 2175.38 1487.04 2175.38Z" fill="#F5F5F5"/>
<path d="M1655.75 2318.49C1655.75 2265.56 1612.85 2222.66 1559.92 2222.66C1507 2222.66 1464.09 2265.56 1464.09 2318.49V3447.61C1464.09 3500.53 1507 3543.43 1559.92 3543.43C1612.85 3543.43 1655.75 3500.53 1655.75 3447.61V2318.49Z" fill="#EBEBEB"/>
<path d="M1692.93 2175.38H1676.47C1602.71 2175.38 1542.92 2235.17 1542.92 2308.92V3457.17C1542.92 3530.92 1602.71 3590.71 1676.47 3590.71H1692.93C1766.69 3590.71 1826.48 3530.92 1826.48 3457.17V2308.92C1826.48 2235.17 1766.69 2175.38 1692.93 2175.38Z" fill="#F5F5F5"/>
<path d="M1765.81 3543.43C1740.46 3543.43 1716.14 3533.36 1698.2 3515.43C1680.27 3497.5 1670.2 3473.18 1670.2 3447.82V2318.49C1670.2 2293.13 1680.27 2268.81 1698.2 2250.88C1716.14 2232.94 1740.46 2222.87 1765.81 2222.87C1791.17 2222.87 1815.49 2232.94 1833.43 2250.88C1851.36 2268.81 1861.43 2293.13 1861.43 2318.49V3447.71C1861.44 3460.28 1858.98 3472.72 1854.18 3484.33C1849.38 3495.95 1842.34 3506.5 1833.46 3515.39C1824.58 3524.28 1814.04 3531.33 1802.43 3536.15C1790.82 3540.96 1778.38 3543.43 1765.81 3543.43Z" fill="#EBEBEB"/>
<path d="M1898.83 2175.38H1882.36C1808.61 2175.38 1748.82 2235.17 1748.82 2308.92V3457.17C1748.82 3530.92 1808.61 3590.71 1882.36 3590.71H1898.83C1972.58 3590.71 2032.37 3530.92 2032.37 3457.17V2308.92C2032.37 2235.17 1972.58 2175.38 1898.83 2175.38Z" fill="#F5F5F5"/>
<path d="M1971.71 3543.43C1946.35 3543.43 1922.03 3533.36 1904.1 3515.43C1886.17 3497.5 1876.09 3473.18 1876.09 3447.82V2318.49C1876.09 2293.13 1886.17 2268.81 1904.1 2250.88C1922.03 2232.94 1946.35 2222.87 1971.71 2222.87C1997.07 2222.87 2021.39 2232.94 2039.32 2250.88C2057.25 2268.81 2067.32 2293.13 2067.32 2318.49V3447.71C2067.34 3460.28 2064.88 3472.72 2060.08 3484.33C2055.28 3495.95 2048.24 3506.5 2039.36 3515.39C2030.48 3524.28 2019.93 3531.33 2008.32 3536.15C1996.72 3540.96 1984.27 3543.43 1971.71 3543.43Z" fill="#EBEBEB"/>
<path d="M2104.83 2175.38H2088.36C2014.61 2175.38 1954.82 2235.17 1954.82 2308.92V3457.17C1954.82 3530.92 2014.61 3590.71 2088.36 3590.71H2104.83C2178.58 3590.71 2238.37 3530.92 2238.37 3457.17V2308.92C2238.37 2235.17 2178.58 2175.38 2104.83 2175.38Z" fill="#F5F5F5"/>
<path d="M2268.86 3380.25H2037.9C2025.81 3380.25 2016.01 3390.05 2016.01 3402.13V3411.59C2016.01 3423.68 2025.81 3433.47 2037.9 3433.47H2268.86C2280.95 3433.47 2290.75 3423.68 2290.75 3411.59V3402.13C2290.75 3390.05 2280.95 3380.25 2268.86 3380.25Z" fill="#F5F5F5"/>
<path d="M2268.86 2367.46H2037.9C2025.81 2367.46 2016.01 2377.26 2016.01 2389.35V2398.8C2016.01 2410.89 2025.81 2420.69 2037.9 2420.69H2268.86C2280.95 2420.69 2290.75 2410.89 2290.75 2398.8V2389.35C2290.75 2377.26 2280.95 2367.46 2268.86 2367.46Z" fill="#F5F5F5"/>
<path d="M2656 4166.85C3793.64 4166.85 4715.89 4113.01 4715.89 4046.59C4715.89 3980.17 3793.64 3926.32 2656 3926.32C1518.36 3926.32 596.113 3980.17 596.113 4046.59C596.113 4113.01 1518.36 4166.85 2656 4166.85Z" fill="#F5F5F5"/>
<path d="M934.912 234.485C1275.73 3.62539 1751.26 -16.5602 2209.79 81.9243C2472.52 138.444 2729.73 225.242 2994.16 271.881C3140.03 297.698 3290.04 310.553 3434.21 297.485C3571.36 284.949 3735.72 270.819 3873.51 321.071C4095.87 402.238 4212.63 550.761 4275.1 737.956C4339.91 935.747 4349.93 1147.4 4304.1 1350.43C4300.28 1367.53 4296.03 1384.43 4291.35 1401.32C4253 1540.81 4183.52 1669.79 4072.39 1759.03C3864.05 1926.36 3454.82 2006.46 3157.24 1836.8C2944.76 1723.54 2786.68 1560.57 2611.7 1701.55L2386.15 1616.56C2423.65 1546.55 2348.44 1408.33 2199.81 1390.38C2048.63 1372.21 1930.17 1403.66 1817.34 1408.54C1679.87 1414.6 1538.78 1414.17 1396.31 1387.3C1079.29 1327.27 722.644 1054.34 672.18 739.231C634.253 508.265 766.203 348.48 934.912 234.485Z" fill="#EB5E28"/>
<path opacity="0.8" d="M934.912 234.485C1275.73 3.62539 1751.26 -16.5602 2209.79 81.9243C2472.52 138.444 2729.73 225.242 2994.16 271.881C3140.03 297.698 3290.04 310.553 3434.21 297.485C3571.36 284.949 3735.72 270.819 3873.51 321.071C4095.87 402.238 4212.63 550.761 4275.1 737.956C4339.91 935.747 4349.93 1147.4 4304.1 1350.43C4300.28 1367.53 4296.03 1384.43 4291.35 1401.32C4253 1540.81 4183.52 1669.79 4072.39 1759.03C3864.05 1926.36 3454.82 2006.46 3157.24 1836.8C2944.76 1723.54 2786.68 1560.57 2611.7 1701.55L2386.15 1616.56C2423.65 1546.55 2348.44 1408.33 2199.81 1390.38C2048.63 1372.21 1930.17 1403.66 1817.34 1408.54C1679.87 1414.6 1538.78 1414.17 1396.31 1387.3C1079.29 1327.27 722.644 1054.34 672.18 739.231C634.253 508.265 766.203 348.48 934.912 234.485Z" fill="white"/>
<path d="M4266.07 514.321C3949.26 180.196 3471.5 59.2949 2997.14 77.6744C2725.16 88.2984 2455.31 134.513 2182.81 133.557C2032.48 133.025 1879.6 116.877 1735.54 72.2562C1598.59 29.7602 1434.24 -20.2788 1289.33 8.51223C1055.6 55.5765 919.932 201.338 834.834 402.556C742.83 619.923 711.808 863.532 733.056 1097.47C734.827 1117.73 737.058 1137.95 739.749 1158.14C762.06 1325.57 816.986 1487.48 918.657 1612.31C1109.25 1846.04 1512.96 2022.29 1833.49 1889.49C2026.32 1816.93 2087.3 1681.15 2198.32 1760.2C2257.21 1801.95 2328.98 1821.52 2400.92 1815.44L2426.2 1813.32C2473.41 1809.64 2519.11 1795.01 2559.68 1770.59C2600.25 1746.18 2634.58 1712.64 2659.93 1672.66C2680.18 1640.43 2708.87 1614.35 2742.87 1597.26C2776.88 1580.16 2814.92 1572.69 2852.86 1575.66C3007.65 1586.28 3123.46 1646.2 3237.13 1675.1C3375.24 1710.26 3517.82 1738.84 3664.85 1737.36C3992.07 1733.85 4384.31 1495.13 4472.28 1145.49C4536.98 888.71 4422.66 679.312 4266.07 514.321Z" fill="#EB5E28"/>
<path opacity="0.7" d="M4266.07 514.321C3949.26 180.196 3471.5 59.2949 2997.14 77.6744C2725.16 88.2984 2455.31 134.513 2182.81 133.557C2032.48 133.025 1879.6 116.877 1735.54 72.2562C1598.59 29.7602 1434.24 -20.2788 1289.33 8.51223C1055.6 55.5765 919.932 201.338 834.834 402.556C742.83 619.923 711.808 863.532 733.056 1097.47C734.827 1117.73 737.058 1137.95 739.749 1158.14C762.06 1325.57 816.986 1487.48 918.657 1612.31C1109.25 1846.04 1512.96 2022.29 1833.49 1889.49C2026.32 1816.93 2087.3 1681.15 2198.32 1760.2C2257.21 1801.95 2328.98 1821.52 2400.92 1815.44L2426.2 1813.32C2473.41 1809.64 2519.11 1795.01 2559.68 1770.59C2600.25 1746.18 2634.58 1712.64 2659.93 1672.66C2680.18 1640.43 2708.87 1614.35 2742.87 1597.26C2776.88 1580.16 2814.92 1572.69 2852.86 1575.66C3007.65 1586.28 3123.46 1646.2 3237.13 1675.1C3375.24 1710.26 3517.82 1738.84 3664.85 1737.36C3992.07 1733.85 4384.31 1495.13 4472.28 1145.49C4536.98 888.71 4422.66 679.312 4266.07 514.321Z" fill="white"/>
<path opacity="0.2" d="M1410.87 772.697C1480.69 692.882 1564.15 626.115 1657.34 575.516C1869.82 458.652 2117.68 412.756 2358.53 424.549C2610.42 436.766 2868.48 437.191 3112.83 362.93C3224.92 328.72 3337.42 277.938 3456.94 301.098C3639.04 336.476 3753.25 492.33 3817.31 655.621C3904.43 877.556 3893.38 1152.4 3742.94 1343.84C3608.02 1515.31 3383.96 1608.81 3169.99 1543.36C3104.23 1525.41 3011.9 1443.82 2944.44 1464.32C2915.86 1473.03 2891.32 1491.41 2864.23 1504.37C2830.16 1520.19 2792.71 1527.33 2755.21 1525.17C2717.71 1523 2681.33 1511.58 2649.31 1491.94C2594.38 1457.41 2556.24 1403.66 2488.14 1392.29C2424.4 1381.66 2360.65 1410.88 2301.16 1436.17C2163.05 1494.49 2016.22 1535.93 1866.74 1534.65C1684.97 1533.16 1508.61 1461.77 1389.3 1322.17C1335.94 1262.12 1301.95 1187.36 1291.77 1107.67C1277.75 982.203 1330.34 867.463 1410.87 772.697Z" fill="white"/>
<path d="M1355.3 1617.94C1250.23 1617.94 1149.62 1580.76 1078.02 1512.66C976.558 1415.98 945.111 1255.13 1005.03 1138.48C1076.42 999.2 1248.64 946.611 1387.49 956.173C1526.35 965.734 1653.84 1022.68 1778.67 1077.71L1808.63 1090.89C1941.75 1149.21 2084.11 1205.41 2231.57 1195.96C2392.95 1185.33 2535.52 1097.58 2673.42 1012.59C2745.88 967.859 2820.88 921.645 2898.44 886.479C3132.17 780.239 3416.15 766.003 3696.94 845.896C3958.61 920.264 4164.4 1033.3 4365.08 1212.1C4445.19 1283.5 4568.32 1369.45 4700.38 1372.95V1383.58C4565.13 1379.96 4439.66 1292.63 4358.28 1219.97C4159.19 1042.33 3954.57 930.038 3694.39 856.095C3416.04 776.84 3135.04 791.076 2903.11 896.147C2825.98 931.206 2751.62 977.102 2678.95 1021.62C2539.99 1107.35 2396.24 1195.96 2232.74 1206.58C2082.94 1216.14 1939.2 1159.52 1804.91 1100.34L1774.21 1087.38C1650.23 1032.77 1521.99 976.146 1386.54 966.797C1251.08 957.448 1083.65 1008.44 1014.49 1143.69C956.691 1256.3 987.182 1411.73 1085.35 1504.9C1177.35 1592.55 1319.08 1627.4 1455.06 1595.84L1457.4 1606.47C1423.91 1614.16 1389.66 1618.01 1355.3 1617.94Z" fill="#EB5E28"/>
<path d="M4706.43 1224.54C4508.82 1175.88 4500.64 1316.65 4500.64 1316.65C4500.64 1316.65 4610.82 1404.29 4706.43 1224.54Z" fill="#EB5E28"/>
<path d="M2882.93 720.427C2712.41 831.554 2809.73 933.65 2809.73 933.65C2809.73 933.65 2949.12 912.934 2882.93 720.427Z" fill="#EB5E28"/>
<path d="M2326.66 1058.7C2123.1 1060.61 2150.19 1199.04 2150.19 1199.04C2150.19 1199.04 2279.06 1255.98 2326.66 1058.7Z" fill="#EB5E28"/>
<path d="M4161.31 1245.78C4244.29 1059.97 4107.24 1026.93 4107.24 1026.93C4107.24 1026.93 4001.32 1119.89 4161.31 1245.78Z" fill="#EB5E28"/>
<path d="M2800.17 1066.45C2725.8 961.485 2664.07 1025.12 2664.07 1025.12C2664.07 1025.12 2680.33 1112.56 2800.17 1066.45Z" fill="#EB5E28"/>
<path d="M1075.79 1176.62C949.679 1200.63 982.082 1283.5 982.082 1283.5C982.082 1283.5 1068.35 1304.75 1075.79 1176.62Z" fill="#EB5E28"/>
<path opacity="0.5" d="M1759.65 706.721C1759.8 797.577 1728.79 885.736 1671.79 956.491C1639.8 996.024 1613.94 1040.15 1595.09 1087.38C1587.57 1106.66 1574.44 1123.24 1557.39 1134.96C1540.34 1146.69 1520.16 1153.02 1499.47 1153.14H1220.38C1199.7 1153.07 1179.53 1146.78 1162.48 1135.09C1145.43 1123.4 1132.29 1106.85 1124.76 1087.59C1105.44 1039.25 1079.24 993.956 1046.99 953.091C1007.75 903.077 981.018 844.406 969.04 781.968C957.063 719.53 960.181 655.133 978.136 594.145C996.091 533.157 1028.36 477.343 1072.26 431.355C1116.16 385.367 1170.41 350.536 1230.5 329.767C1290.59 308.997 1354.77 302.889 1417.7 311.952C1480.63 321.016 1540.48 344.988 1592.26 381.87C1644.04 418.753 1686.26 467.478 1715.4 523.985C1744.54 580.492 1759.74 643.145 1759.76 706.721H1759.65Z" fill="white"/>
<path d="M1504.68 1274.79H1216.66C1204.46 1274.73 1192.77 1269.85 1184.16 1261.21C1175.54 1252.58 1170.69 1240.88 1170.66 1228.68C1170.69 1216.49 1175.54 1204.8 1184.16 1196.18C1192.78 1187.56 1204.47 1182.71 1216.66 1182.68H1504.68C1510.75 1182.64 1516.77 1183.79 1522.39 1186.09C1528.02 1188.38 1533.13 1191.76 1537.45 1196.03C1541.76 1200.31 1545.19 1205.39 1547.53 1210.99C1549.88 1216.6 1551.09 1222.61 1551.1 1228.68C1551.09 1234.76 1549.88 1240.77 1547.53 1246.38C1545.19 1251.99 1541.77 1257.08 1537.46 1261.36C1533.14 1265.65 1528.03 1269.04 1522.4 1271.34C1516.78 1273.64 1510.75 1274.82 1504.68 1274.79Z" fill="white"/>
<path d="M1504.68 1398.66H1216.66C1204.47 1398.63 1192.78 1393.78 1184.16 1385.16C1175.54 1376.54 1170.69 1364.85 1170.66 1352.66C1170.69 1340.47 1175.54 1328.78 1184.16 1320.16C1192.78 1311.54 1204.47 1306.69 1216.66 1306.66H1504.68C1516.87 1306.69 1528.55 1311.54 1537.17 1320.16C1545.8 1328.78 1550.65 1340.47 1550.68 1352.66C1550.65 1364.85 1545.8 1376.54 1537.17 1385.16C1528.55 1393.78 1516.87 1398.63 1504.68 1398.66Z" fill="white"/>
<path d="M1360.62 883.398C1330.38 883.377 1300.84 874.393 1275.71 857.582C1250.58 840.771 1231 816.887 1219.45 788.95C1207.89 761.013 1204.88 730.277 1210.79 700.629C1216.7 670.98 1231.27 643.749 1252.66 622.38C1274.04 601.01 1301.28 586.46 1330.94 580.569C1360.59 574.679 1391.32 577.713 1419.25 589.287C1447.18 600.861 1471.05 620.456 1487.84 645.595C1504.64 670.733 1513.6 700.287 1513.6 730.519C1513.54 771.066 1497.4 809.935 1468.72 838.596C1440.04 867.258 1401.16 883.37 1360.62 883.398ZM1360.62 588.264C1332.48 588.285 1304.99 596.646 1281.61 612.29C1258.23 627.934 1240.01 650.158 1229.26 676.154C1218.51 702.149 1215.71 730.749 1221.21 758.337C1226.71 785.925 1240.27 811.262 1260.17 831.146C1280.07 851.03 1305.42 864.568 1333.01 870.049C1360.6 875.529 1389.2 872.706 1415.18 861.936C1441.17 851.166 1463.38 832.932 1479.01 809.541C1494.64 786.149 1502.98 758.65 1502.98 730.519C1502.95 692.781 1487.94 656.598 1461.24 629.923C1434.55 603.248 1398.35 588.264 1360.62 588.264Z" fill="#EB5E28"/>
<path d="M1466.86 883.398C1436.62 883.377 1407.08 874.393 1381.95 857.582C1356.82 840.771 1337.24 816.887 1325.69 788.95C1314.13 761.013 1311.12 730.277 1317.03 700.629C1322.94 670.98 1337.51 643.749 1358.9 622.38C1380.28 601.01 1407.52 586.46 1437.18 580.569C1466.83 574.679 1497.56 577.713 1525.49 589.287C1553.42 600.861 1577.29 620.456 1594.08 645.595C1610.88 670.733 1619.84 700.287 1619.84 730.519C1619.79 771.066 1603.65 809.935 1574.96 838.596C1546.28 867.258 1507.4 883.37 1466.86 883.398ZM1466.86 588.264C1438.72 588.285 1411.23 596.646 1387.85 612.29C1364.47 627.934 1346.26 650.158 1335.5 676.154C1324.75 702.149 1321.95 730.749 1327.45 758.337C1332.95 785.925 1346.51 811.262 1366.41 831.146C1386.31 851.03 1411.66 864.568 1439.25 870.049C1466.84 875.529 1495.44 872.706 1521.43 861.936C1547.41 851.166 1569.62 832.932 1585.25 809.541C1600.88 786.149 1609.22 758.65 1609.22 730.519C1609.19 692.781 1594.18 656.598 1567.48 629.923C1540.79 603.248 1504.59 588.264 1466.86 588.264Z" fill="#EB5E28"/>
<path d="M1254.38 883.398C1224.14 883.377 1194.6 874.393 1169.47 857.582C1144.34 840.771 1124.76 816.887 1113.21 788.95C1101.65 761.013 1098.64 730.277 1104.55 700.629C1110.46 670.98 1125.03 643.749 1146.42 622.38C1167.8 601.01 1195.04 586.46 1224.7 580.569C1254.35 574.679 1285.08 577.713 1313.01 589.287C1340.94 600.861 1364.81 620.456 1381.6 645.595C1398.4 670.733 1407.36 700.287 1407.36 730.519C1407.3 771.066 1391.16 809.935 1362.48 838.596C1333.8 867.258 1294.92 883.37 1254.38 883.398ZM1254.38 588.264C1226.24 588.285 1198.75 596.646 1175.37 612.29C1151.99 627.934 1133.77 650.158 1123.02 676.154C1112.27 702.149 1109.47 730.749 1114.97 758.337C1120.47 785.925 1134.03 811.262 1153.93 831.146C1173.83 851.03 1199.18 864.568 1226.77 870.049C1254.36 875.529 1282.96 872.706 1308.94 861.936C1334.93 851.166 1357.14 832.932 1372.77 809.541C1388.4 786.149 1396.74 758.65 1396.74 730.519C1396.71 692.781 1381.7 656.598 1355 629.923C1328.31 603.248 1292.11 588.264 1254.38 588.264Z" fill="#EB5E28"/>
<path d="M1264.26 1153.14H1253.63C1253.63 1069.74 1211.99 993.782 1171.72 920.583C1135.49 854.608 1101.28 792.351 1101.28 730.52H1111.91C1111.91 789.589 1145.48 850.677 1180.96 915.377C1221.76 989.958 1264.26 1066.98 1264.26 1153.14Z" fill="#EB5E28"/>
<path d="M1467.49 1153.14H1456.87C1456.87 1066.98 1499.37 989.958 1540.16 915.377C1575.65 850.677 1609.22 789.589 1609.22 730.52H1619.84C1619.84 792.351 1585.63 854.608 1549.4 920.583C1509.14 993.888 1467.49 1069.32 1467.49 1153.14Z" fill="#EB5E28"/>
<path d="M4184.79 1552.18C3760.9 1366.79 3173.92 1187.88 3064.49 1187.88C2955.07 1187.88 2254.31 1398.66 1726.82 1683.17C1783.88 1731.41 1869.72 1775.5 1976.7 1814.38C2067.54 1754.67 2120.66 1704.95 2198.32 1760.2C2257.21 1801.95 2328.98 1821.52 2400.92 1815.44L2426.2 1813.32C2473.41 1809.64 2519.11 1795.01 2559.68 1770.59C2600.25 1746.18 2634.57 1712.65 2659.93 1672.66C2680.18 1640.43 2708.87 1614.36 2742.87 1597.26C2776.88 1580.16 2814.92 1572.69 2852.86 1575.66C3007.65 1586.28 3123.46 1646.2 3237.24 1675.1C3375.35 1710.27 3517.82 1738.84 3664.85 1737.36C3838.13 1735.44 4029.79 1667.56 4184.79 1552.18Z" fill="#EB5E28"/>
<path opacity="0.6" d="M4184.79 1552.18C3760.9 1366.79 3173.92 1187.88 3064.49 1187.88C2955.07 1187.88 2254.31 1398.66 1726.82 1683.17C1783.88 1731.41 1869.72 1775.5 1976.7 1814.38C2067.54 1754.67 2120.66 1704.95 2198.32 1760.2C2257.21 1801.95 2328.98 1821.52 2400.92 1815.44L2426.2 1813.32C2473.41 1809.64 2519.11 1795.01 2559.68 1770.59C2600.25 1746.18 2634.57 1712.65 2659.93 1672.66C2680.18 1640.43 2708.87 1614.36 2742.87 1597.26C2776.88 1580.16 2814.92 1572.69 2852.86 1575.66C3007.65 1586.28 3123.46 1646.2 3237.24 1675.1C3375.35 1710.27 3517.82 1738.84 3664.85 1737.36C3838.13 1735.44 4029.79 1667.56 4184.79 1552.18Z" fill="white"/>
<path opacity="0.1" d="M3064.49 1187.88C2954.75 1187.88 2254.31 1398.24 1726.82 1683.17C1726.82 1683.17 1841.46 1733.21 2005.49 1795.15C2079.86 1745.01 2129.26 1711.01 2198.32 1760.2C2257.21 1801.95 2328.98 1821.52 2400.92 1815.44L2426.2 1813.32C2473.41 1809.64 2519.11 1795.01 2559.68 1770.59C2600.25 1746.18 2634.57 1712.65 2659.93 1672.66C2680.18 1640.43 2708.87 1614.36 2742.87 1597.26C2776.88 1580.16 2814.92 1572.69 2852.86 1575.66C2943.7 1581.61 3021.15 1604.88 3092.65 1628.78C3068.53 1565.04 3054.93 1511.92 3085.63 1483.87C3187.2 1391.76 2965.37 1236.44 3064.49 1187.88Z" fill="#EB5E28"/>
<path d="M2198.32 1759.88C2257.21 1801.63 2328.98 1821.2 2400.92 1815.12L2426.2 1813C2473.41 1809.32 2519.11 1794.69 2559.68 1770.27C2600.25 1745.86 2634.57 1712.33 2659.93 1672.34C2688.38 1627.13 2733.1 1594.57 2784.87 1581.4C2428.33 1361.9 1859.2 1133.06 1760.08 1133.06C1682.95 1133.06 1257.77 1294.65 861.606 1530.29C878.575 1559 897.644 1586.42 918.657 1612.31C1109.25 1846.04 1512.96 2022.29 1833.49 1889.49C2026.32 1816.93 2087.3 1681.15 2198.32 1759.88Z" fill="#EB5E28"/>
<path opacity="0.4" d="M2198.32 1759.88C2257.21 1801.63 2328.98 1821.2 2400.92 1815.12L2426.2 1813C2473.41 1809.32 2519.11 1794.69 2559.68 1770.27C2600.25 1745.86 2634.57 1712.33 2659.93 1672.34C2688.38 1627.13 2733.1 1594.57 2784.87 1581.4C2428.33 1361.9 1859.2 1133.06 1760.08 1133.06C1682.95 1133.06 1257.77 1294.65 861.606 1530.29C878.575 1559 897.644 1586.42 918.657 1612.31C1109.25 1846.04 1512.96 2022.29 1833.49 1889.49C2026.32 1816.93 2087.3 1681.15 2198.32 1759.88Z" fill="white"/>
<path opacity="0.3" d="M1777.71 1457.09C1862.71 1356.17 1676.79 1186.18 1760.08 1133.06C1682.95 1133.06 1257.77 1294.65 861.606 1530.29C878.575 1559 897.644 1586.42 918.657 1612.31C1109.25 1846.04 1512.96 2022.29 1833.49 1889.49L1845.71 1884.71C1846.98 1732.68 1721.09 1524.98 1777.71 1457.09Z" fill="#EB5E28"/>
<path d="M3804.24 791.289C3920.12 791.289 4014.07 697.347 4014.07 581.465C4014.07 465.582 3920.12 371.641 3804.24 371.641C3688.36 371.641 3594.42 465.582 3594.42 581.465C3594.42 697.347 3688.36 791.289 3804.24 791.289Z" fill="white"/>
<path d="M4034.46 871.591C4099.97 806.08 4099.97 699.864 4034.46 634.353C3968.95 568.841 3862.73 568.841 3797.22 634.353C3731.71 699.864 3731.71 806.079 3797.22 871.591C3862.73 937.103 3968.95 937.103 4034.46 871.591Z" fill="white"/>
<path d="M3662.62 1010.46C3794.11 1010.46 3900.71 903.868 3900.71 772.378C3900.71 640.888 3794.11 534.294 3662.62 534.294C3531.13 534.294 3424.54 640.888 3424.54 772.378C3424.54 903.868 3531.13 1010.46 3662.62 1010.46Z" fill="white"/>
<path d="M3396.11 917.33C3486.91 879.72 3530.03 775.624 3492.42 684.825C3454.8 594.026 3350.71 550.908 3259.91 588.518C3169.11 626.128 3125.99 730.224 3163.6 821.023C3201.21 911.822 3305.31 954.941 3396.11 917.33Z" fill="white"/>
<path d="M3166.7 592.742C3243.11 540.445 3262.65 436.112 3210.36 359.707C3158.06 283.301 3053.73 263.757 2977.32 316.053C2900.92 368.35 2881.37 472.683 2933.67 549.088C2985.97 625.494 3090.3 645.038 3166.7 592.742Z" fill="white"/>
<path d="M3036 607.859C3070.84 547.078 3049.81 469.563 2989.03 434.725C2928.25 399.887 2850.73 420.918 2815.9 481.699C2781.06 542.481 2802.09 619.996 2862.87 654.834C2923.65 689.672 3001.17 668.64 3036 607.859Z" fill="white"/>
<path d="M2708.85 775.125C2748.47 735.503 2748.47 671.263 2708.85 631.64C2669.23 592.018 2604.99 592.018 2565.37 631.64C2525.74 671.263 2525.74 735.503 2565.37 775.125C2604.99 814.748 2669.23 814.748 2708.85 775.125Z" fill="white"/>
<path d="M2657.17 903.903C2702.29 903.903 2738.87 867.325 2738.87 822.204C2738.87 777.083 2702.29 740.506 2657.17 740.506C2612.05 740.506 2575.47 777.083 2575.47 822.204C2575.47 867.325 2612.05 903.903 2657.17 903.903Z" fill="white"/>
<path d="M2566.76 869.482C2602.43 869.482 2631.35 840.562 2631.35 804.888C2631.35 769.214 2602.43 740.294 2566.76 740.294C2531.08 740.294 2502.16 769.214 2502.16 804.888C2502.16 840.562 2531.08 869.482 2566.76 869.482Z" fill="white"/>
<path d="M2526.17 1001.64C2526.17 1010.89 2523.43 1019.93 2518.3 1027.61C2513.16 1035.3 2505.86 1041.29 2497.32 1044.83C2488.78 1048.37 2479.38 1049.3 2470.31 1047.49C2461.24 1045.69 2452.91 1041.24 2446.38 1034.7C2439.84 1028.16 2435.39 1019.83 2433.58 1010.76C2431.78 1001.7 2432.7 992.297 2436.24 983.755C2439.78 975.214 2445.77 967.913 2453.46 962.776C2461.15 957.64 2470.18 954.898 2479.43 954.898C2491.83 954.898 2503.72 959.823 2512.48 968.59C2521.25 977.356 2526.17 989.246 2526.17 1001.64Z" fill="white"/>
<path d="M2316.03 963.078C2316.03 968.962 2314.29 974.713 2311.02 979.605C2307.75 984.497 2303.1 988.31 2297.67 990.561C2292.23 992.813 2286.25 993.402 2280.48 992.254C2274.71 991.106 2269.41 988.273 2265.25 984.113C2261.09 979.952 2258.26 974.652 2257.11 968.882C2255.96 963.111 2256.55 957.13 2258.8 951.695C2261.05 946.259 2264.87 941.613 2269.76 938.344C2274.65 935.076 2280.4 933.331 2286.28 933.331C2294.17 933.331 2301.74 936.465 2307.32 942.044C2312.9 947.623 2316.03 955.189 2316.03 963.078Z" fill="white"/>
<path d="M2199.17 408.612C2209.41 446.414 2206.28 486.591 2190.32 522.354C2174.35 558.116 2146.53 587.269 2111.55 604.883C2076.57 622.498 2036.58 627.493 1998.35 619.026C1960.11 610.558 1925.97 589.146 1901.7 558.411C1929.96 565.956 1959.7 565.956 1987.96 558.411C2015.41 551.236 2040.63 537.303 2061.32 517.883C2082.01 498.464 2097.5 474.174 2106.4 447.23C2115.29 420.286 2117.3 391.544 2112.24 363.625C2107.17 335.707 2095.2 309.499 2077.42 287.393C2106.65 294.963 2133.34 310.183 2154.73 331.488C2176.13 352.794 2191.47 379.414 2199.17 408.612Z" fill="white"/>
<path d="M4162.48 357.511C3942.88 257.326 3845.89 463.007 3845.89 463.007L4160.04 520.164L4162.48 357.511Z" fill="#263238"/>
<path d="M4268.94 571.371C4216.56 807.012 3993.88 760.585 3993.88 760.585L4137.62 475.437L4268.94 571.371Z" fill="#263238"/>
<path d="M4687.31 230.022C4359.35 173.077 3980.92 427.203 3980.92 427.203L3930.88 606.324L4104.16 674.53C4104.16 674.53 4535.07 525.688 4687.31 230.022Z" fill="#EB5E28"/>
<path d="M4017.57 454.826C3781.93 476.074 3754.52 614.186 3754.52 614.186L4055.82 521.332L4017.57 454.826Z" fill="#263238"/>
<path d="M4103.94 628.423C3945.33 803.931 3818.58 742.524 3818.58 742.524L4074.3 558.092L4103.94 628.423Z" fill="#263238"/>
<path d="M4311.64 523.989C4294.71 532.334 4275.69 535.48 4256.97 533.032C4238.26 530.583 4220.68 522.649 4206.47 510.23C4192.25 497.811 4182.03 481.462 4177.09 463.243C4172.15 445.024 4172.71 425.751 4178.71 407.852C4184.71 389.954 4195.87 374.23 4210.78 362.663C4225.7 351.096 4243.71 344.203 4262.54 342.852C4281.36 341.502 4300.17 345.755 4316.58 355.075C4333 364.396 4346.29 378.366 4354.78 395.226C4366.1 418.027 4367.92 444.386 4359.83 468.524C4351.74 492.662 4334.42 512.609 4311.64 523.989Z" fill="white"/>
<path opacity="0.4" d="M4304.31 509.221C4290.22 516.295 4274.35 519.024 4258.71 517.062C4243.06 515.101 4228.36 508.536 4216.45 498.202C4204.54 487.868 4195.97 474.23 4191.83 459.018C4187.69 443.807 4188.16 427.707 4193.18 412.763C4198.2 397.818 4207.55 384.702 4220.04 375.078C4232.52 365.454 4247.59 359.757 4263.32 358.709C4279.05 357.661 4294.74 361.31 4308.39 369.192C4322.05 377.074 4333.05 388.834 4340.01 402.981C4349.28 421.817 4350.72 443.552 4344.04 463.451C4337.35 483.351 4323.07 499.802 4304.31 509.221Z" fill="#EB5E28"/>
<path opacity="0.6" d="M1441.36 207.606C1441.36 209.476 1440.8 211.304 1439.76 212.859C1438.73 214.414 1437.25 215.626 1435.52 216.341C1433.79 217.057 1431.89 217.244 1430.06 216.879C1428.22 216.515 1426.54 215.614 1425.22 214.292C1423.89 212.969 1422.99 211.285 1422.63 209.45C1422.26 207.616 1422.45 205.715 1423.17 203.987C1423.88 202.26 1425.09 200.783 1426.65 199.744C1428.2 198.705 1430.03 198.15 1431.9 198.15C1434.41 198.15 1436.82 199.147 1438.59 200.92C1440.36 202.693 1441.36 205.098 1441.36 207.606Z" fill="white"/>
<path opacity="0.6" d="M1902.12 800.532C1907.34 800.532 1911.58 796.298 1911.58 791.076C1911.58 785.854 1907.34 781.621 1902.12 781.621C1896.9 781.621 1892.67 785.854 1892.67 791.076C1892.67 796.298 1896.9 800.532 1902.12 800.532Z" fill="white"/>
<path opacity="0.6" d="M917.17 480.324C917.17 482.194 916.615 484.022 915.576 485.577C914.538 487.132 913.061 488.344 911.333 489.06C909.605 489.775 907.704 489.963 905.87 489.598C904.036 489.233 902.351 488.332 901.029 487.01C899.706 485.688 898.806 484.003 898.441 482.169C898.076 480.335 898.263 478.434 898.979 476.706C899.695 474.978 900.907 473.501 902.462 472.462C904.016 471.423 905.845 470.869 907.715 470.869C908.96 470.855 910.196 471.089 911.35 471.56C912.503 472.03 913.551 472.726 914.432 473.606C915.313 474.487 916.009 475.535 916.479 476.689C916.949 477.843 917.184 479.078 917.17 480.324Z" fill="white"/>
<path opacity="0.6" d="M2589.49 390.87C2594.72 390.87 2598.95 386.636 2598.95 381.414C2598.95 376.192 2594.72 371.959 2589.49 371.959C2584.27 371.959 2580.04 376.192 2580.04 381.414C2580.04 386.636 2584.27 390.87 2589.49 390.87Z" fill="white"/>
<path opacity="0.6" d="M3289.93 195.176C3295.16 195.176 3299.39 190.943 3299.39 185.721C3299.39 180.499 3295.16 176.266 3289.93 176.266C3284.71 176.266 3280.48 180.499 3280.48 185.721C3280.48 190.943 3284.71 195.176 3289.93 195.176Z" fill="white"/>
<path opacity="0.6" d="M3961.26 1192.13C3966.49 1192.13 3970.72 1187.9 3970.72 1182.68C3970.72 1177.46 3966.49 1173.22 3961.26 1173.22C3956.04 1173.22 3951.81 1177.46 3951.81 1182.68C3951.81 1187.9 3956.04 1192.13 3961.26 1192.13Z" fill="white"/>
<path opacity="0.7" d="M1856.97 362.822C1829.03 372.277 1821.38 379.927 1811.92 407.868C1802.47 379.927 1794.82 372.277 1766.88 362.822C1794.82 353.367 1802.47 345.717 1811.92 317.776C1821.38 345.717 1829.03 353.367 1856.97 362.822Z" fill="white"/>
<path opacity="0.7" d="M2385.09 651.052C2400.99 651.052 2413.88 638.162 2413.88 622.261C2413.88 606.36 2400.99 593.47 2385.09 593.47C2369.19 593.47 2356.3 606.36 2356.3 622.261C2356.3 638.162 2369.19 651.052 2385.09 651.052Z" fill="white"/>
<path opacity="0.7" d="M888.379 1007.27C904.28 1007.27 917.17 994.384 917.17 978.483C917.17 962.583 904.28 949.692 888.379 949.692C872.478 949.692 859.588 962.583 859.588 978.483C859.588 994.384 872.478 1007.27 888.379 1007.27Z" fill="white"/>
<path opacity="0.7" d="M3036.66 185.72C3029.33 187.14 3022.61 190.724 3017.34 196.008C3012.08 201.292 3008.52 208.033 3007.12 215.361C3005.74 208.027 3002.19 201.278 2996.92 195.992C2991.65 190.706 2984.92 187.127 2977.59 185.72C2984.92 184.362 2991.67 180.812 2996.94 175.539C3002.21 170.266 3005.76 163.518 3007.12 156.186C3008.51 163.506 3012.07 170.239 3017.34 175.507C3022.6 180.776 3029.34 184.335 3036.66 185.72Z" fill="white"/>
<path opacity="0.7" d="M4298.47 984.433C4314.78 984.433 4328 971.21 4328 954.898C4328 938.586 4314.78 925.363 4298.47 925.363C4282.16 925.363 4268.94 938.586 4268.94 954.898C4268.94 971.21 4282.16 984.433 4298.47 984.433Z" fill="white"/>
<path d="M3447.7 1649.18C3459.07 1623.89 3578.59 1653.11 3714.36 1714.62C3850.14 1776.13 3951.07 1846.36 3939.59 1871.64L4082.59 1936.24C4100.65 1896.29 3941.29 1785.16 3726.37 1687.95C3511.44 1590.74 3322.66 1544.64 3304.81 1584.58L3447.7 1649.18Z" fill="#EB5E28"/>
<path opacity="0.2" d="M3522.17 1607.96C3661.12 1654.25 3794.91 1714.78 3921.42 1788.56C3920.98 1803.41 3919.06 1818.18 3915.69 1832.65C3878.93 1799.93 3804.35 1755.31 3714.36 1714.62C3624.38 1673.93 3541.83 1647.37 3492.85 1641.42C3501.56 1629.38 3511.38 1618.17 3522.17 1607.96Z" fill="black"/>
<path d="M3878.29 1853.96C3930.08 1752 3889.41 1627.36 3787.46 1575.57C3685.5 1523.78 3560.86 1564.44 3509.07 1666.4C3457.28 1768.35 3497.94 1892.99 3599.9 1944.78C3701.86 1996.58 3826.49 1955.91 3878.29 1853.96Z" fill="#EB5E28"/>
<path opacity="0.4" d="M3878.29 1853.96C3930.08 1752 3889.41 1627.36 3787.46 1575.57C3685.5 1523.78 3560.86 1564.44 3509.07 1666.4C3457.28 1768.35 3497.94 1892.99 3599.9 1944.78C3701.86 1996.58 3826.49 1955.91 3878.29 1853.96Z" fill="white"/>
<path opacity="0.1" d="M3578.27 1633.24C3571.55 1648.12 3569.4 1664.65 3572.08 1680.75C3574.76 1696.85 3582.15 1711.79 3593.32 1723.69C3604.48 1735.59 3618.93 1743.92 3634.83 1747.61C3650.73 1751.3 3667.36 1750.2 3682.63 1744.44C3697.9 1738.69 3711.13 1728.53 3720.63 1715.26C3730.13 1701.99 3735.48 1686.2 3736.01 1669.89C3736.54 1653.58 3732.23 1637.47 3723.61 1623.61C3714.99 1609.75 3702.46 1598.76 3687.59 1592.02C3677.71 1587.54 3667.04 1585.05 3656.19 1584.7C3645.35 1584.35 3634.54 1586.14 3624.38 1589.96C3614.23 1593.79 3604.93 1599.59 3597.02 1607.01C3589.11 1614.44 3582.73 1623.35 3578.27 1633.24Z" fill="white"/>
<path opacity="0.1" d="M3782.14 1648.96C3779.93 1653.82 3779.21 1659.23 3780.07 1664.5C3780.93 1669.77 3783.33 1674.67 3786.97 1678.57C3790.62 1682.47 3795.33 1685.21 3800.53 1686.43C3805.73 1687.65 3811.17 1687.3 3816.17 1685.42C3821.17 1683.55 3825.5 1680.23 3828.62 1675.89C3831.73 1671.56 3833.49 1666.39 3833.67 1661.06C3833.85 1655.72 3832.44 1650.45 3829.62 1645.92C3826.8 1641.38 3822.7 1637.78 3817.84 1635.58C3811.33 1632.63 3803.92 1632.38 3797.22 1634.89C3790.53 1637.4 3785.11 1642.46 3782.14 1648.96Z" fill="white"/>
<path opacity="0.1" d="M3655.93 1909.15C3653.74 1914.01 3653.03 1919.42 3653.91 1924.68C3654.78 1929.95 3657.2 1934.83 3660.86 1938.72C3664.51 1942.61 3669.24 1945.33 3674.44 1946.54C3679.63 1947.74 3685.07 1947.38 3690.07 1945.49C3695.06 1943.6 3699.38 1940.28 3702.48 1935.94C3705.59 1931.59 3707.33 1926.43 3707.5 1921.09C3707.66 1915.76 3706.25 1910.5 3703.42 1905.97C3700.6 1901.44 3696.49 1897.85 3691.63 1895.65C3685.1 1892.71 3677.68 1892.48 3670.99 1895.01C3664.29 1897.54 3658.88 1902.62 3655.93 1909.15Z" fill="white"/>
<path opacity="0.5" d="M3665.28 1824.37C3726.03 1852.71 3789.31 1875.29 3854.28 1891.83C3845.8 1902.24 3836.25 1911.75 3825.81 1920.19C3772.69 1901.81 3713.94 1878.44 3653.27 1850.93C3592.61 1823.41 3536.41 1795.04 3487.33 1767.21C3486.82 1753.74 3487.64 1740.25 3489.77 1726.94C3545.07 1764.88 3603.83 1797.5 3665.28 1824.37Z" fill="#EB5E28"/>
<path d="M3447.7 1649.18C3436.23 1674.46 3537.05 1744.79 3672.93 1806.31C3808.81 1867.82 3927.91 1896.93 3939.59 1871.64L4082.59 1936.24C4064.53 1976.29 3875.74 1929.97 3660.92 1832.87C3446.11 1735.76 3286.75 1624.63 3304.81 1584.58L3447.7 1649.18Z" fill="#EB5E28"/>
<path d="M2425.78 1752.34C2421.53 1837.33 2533.72 1925.29 2596.93 1926.46C2610.93 1927.24 2624.89 1924.45 2637.52 1918.35C2650.14 1912.25 2661.01 1903.05 2669.1 1891.6C2677.19 1880.15 2682.24 1866.84 2683.78 1852.9C2685.32 1838.97 2683.29 1824.87 2677.89 1811.94C2626.68 1866.44 2535.2 1807.26 2498.66 1754.67C2462.11 1702.08 2429.6 1677.65 2425.78 1752.34Z" fill="#263238"/>
<path d="M2690.95 1890.13C2622.53 1904.58 2571.86 1829.04 2551.57 1777.73L2590.77 1926.46C2645.38 1946.54 2683.09 1944.2 2690.95 1890.13Z" fill="#263238"/>
<path d="M2233.27 3374.73C2238.7 3341.12 2255.67 3310.46 2281.27 3288.03C2306.86 3265.59 2339.48 3252.78 2373.51 3251.81H2496.64L2598.1 2527.36C2602.7 2498.07 2617.36 2471.31 2639.57 2451.67C2661.77 2432.03 2690.12 2420.73 2719.74 2419.74H3254.66C3268.18 2419.36 3281.61 2422 3293.97 2427.48C3306.34 2432.95 3317.32 2441.12 3326.13 2451.38C3334.94 2461.64 3341.34 2473.74 3344.87 2486.79C3348.41 2499.85 3348.98 2513.52 3346.56 2526.83L3253.49 3194.12C3239.15 3296.75 3144.28 3379.83 3041.76 3379.83H2232.53L2233.27 3374.73Z" fill="#263238"/>
<path d="M2949.43 4050.31H3056.63L3039.95 3379.83H2966.01L2949.43 4050.31Z" fill="#E0E0E0"/>
<path opacity="0.3" d="M2965.26 3411.17L3041.12 3428.8L3039.95 3379.83H2966.01L2965.26 3411.17Z" fill="#263238"/>
<path d="M2707.95 4050.31H2815.15L2798.47 3379.83H2724.52L2707.95 4050.31Z" fill="#E0E0E0"/>
<path opacity="0.3" d="M2723.78 3411.17L2799.64 3428.8L2798.47 3379.83H2724.53L2723.78 3411.17Z" fill="#263238"/>
<path d="M2532.02 4050.31H2639.32L2622.64 3379.83H2548.7L2532.02 4050.31Z" fill="#E0E0E0"/>
<path opacity="0.3" d="M2547.95 3411.17L2623.81 3428.8L2622.64 3379.83H2548.7L2547.95 3411.17Z" fill="#263238"/>
<path d="M2290.53 4050.31H2397.84L2381.16 3379.83H2307.21L2290.53 4050.31Z" fill="#E0E0E0"/>
<path opacity="0.3" d="M2306.47 3411.17L2382.33 3428.8L2381.16 3379.83H2307.21L2306.47 3411.17Z" fill="#263238"/>
<path d="M2349.39 1923.06C2247.51 1929.12 2235.5 1807.69 2269.18 1760.41C2303.67 1791.98 2342.26 1818.75 2383.92 1839.98C2358.53 1943.46 2349.39 1923.06 2349.39 1923.06Z" fill="#263238"/>
<path d="M2573.13 2403.27C2564.53 2422.82 2555.6 2449.8 2544.77 2481.46C2539.35 2497.4 2532.87 2514.39 2525.01 2532.77C2516.51 2553.04 2506.12 2572.46 2493.98 2590.78C2479.4 2612.82 2461.48 2632.46 2440.86 2649C2419.04 2666.14 2394.32 2679.24 2367.88 2687.67C2344.3 2695.09 2319.81 2699.2 2295.1 2699.89C2273.77 2700.2 2252.46 2698.77 2231.36 2695.64L2226.05 2694.9C2213.87 2693.19 2202.19 2688.91 2191.79 2682.36C2181.39 2675.8 2172.5 2667.11 2165.7 2656.86C2158.64 2646.14 2153.04 2634.53 2149.02 2622.33C2145.93 2612.74 2143.69 2602.89 2142.33 2592.91C2140.24 2577.45 2139.92 2561.8 2141.37 2546.27C2143.72 2522.06 2148.31 2498.13 2155.08 2474.77C2167.06 2434.51 2182.19 2395.26 2200.34 2357.37C2217.65 2320.83 2236.35 2285.77 2256.43 2251.13C2276.51 2216.5 2297.33 2184.2 2321.13 2151.48C2328.19 2141.76 2338.49 2134.88 2350.18 2132.08C2361.86 2129.27 2374.16 2130.73 2384.86 2136.19C2395.57 2141.64 2403.98 2150.74 2408.57 2161.84C2413.17 2172.93 2413.66 2185.31 2409.95 2196.74V2198.22C2398.47 2233.18 2386.15 2269.19 2374.89 2304.46C2363.63 2339.74 2352.47 2375.11 2343.02 2410.07C2333.45 2443.25 2325.93 2476.99 2320.49 2511.1C2318.26 2524.86 2317.37 2538.81 2317.84 2552.75C2317.91 2556.37 2318.56 2559.95 2319.75 2563.37C2319.75 2564.01 2319.75 2563.37 2319.75 2561.67C2318.94 2558.45 2317.57 2555.4 2315.71 2552.64L2250.16 2514.18C2261.07 2514.47 2271.98 2513.83 2282.78 2512.27C2290.11 2511.05 2297.26 2508.87 2304.03 2505.79C2308.12 2503.82 2311.74 2500.99 2314.65 2497.5C2318.83 2493.15 2322.41 2488.26 2325.27 2482.95C2330.02 2473.85 2334.24 2464.48 2337.92 2454.9C2342.49 2443.53 2346.73 2430.15 2351.73 2415.59C2362.39 2380.48 2375.89 2346.3 2392.1 2313.39C2404.23 2290.25 2424.85 2272.71 2449.65 2264.47C2474.44 2256.22 2501.46 2257.91 2525.03 2269.18C2548.6 2280.45 2566.88 2300.42 2576.03 2324.89C2585.18 2349.36 2584.48 2376.43 2574.09 2400.4L2573.13 2403.27Z" fill="#EFC2BC"/>
<path d="M2265.57 2072.65L2268.22 2082.64C2277.59 2118.1 2295.87 2150.58 2321.34 2176.98L2330.27 2186.33C2337.73 2193.66 2346.98 2198.92 2357.1 2201.58C2367.21 2204.24 2377.85 2204.22 2387.96 2201.52C2423.87 2192.91 2448.83 2159.02 2442.14 2128.85C2436.91 2108.41 2428.1 2089.06 2416.11 2071.69L2394.86 2024.2C2390.45 2016.08 2383.2 2009.87 2374.5 2006.76C2365.8 2003.64 2356.26 2003.84 2347.69 2007.31L2297.76 2023.35C2274.81 2030.68 2260.36 2052.89 2265.57 2072.65Z" fill="#EFC2BC"/>
<path opacity="0.2" d="M2442.25 2128.85C2437.02 2108.41 2428.2 2089.06 2416.22 2071.69L2394.97 2024.2C2390.55 2016.08 2383.31 2009.87 2374.61 2006.76C2365.91 2003.64 2356.36 2003.84 2347.8 2007.31L2326.55 2013.9C2338.65 2052.64 2357.14 2089.09 2381.26 2121.73C2395.58 2140.61 2414.54 2155.47 2436.3 2164.87C2442.53 2153.96 2444.64 2141.18 2442.25 2128.85Z" fill="black"/>
<path d="M2143.82 3784.81C2160.28 3773.13 2259.62 3766.01 2259.62 3766.01C2277.28 3840.37 2290.47 3915.72 2299.14 3991.66L2173.35 3976.26C2173.35 3976.26 2165.81 3850.79 2143.82 3784.81Z" fill="#EFC2BC"/>
<path d="M2295.32 3772.49C2268.33 3573.39 2318.05 3381.42 2290.53 3257.86C2429.18 3282.4 2715.49 3332.97 2763.41 3137.49C2781.89 3061.53 2861.89 2969.1 2855.41 2926.82C2734.83 2926.82 2340.89 2922.36 2197.36 2949.77C1962.78 2994.49 1973.3 3156.08 2036.3 3428.8C2060.84 3535.04 2073.81 3553.74 2104.61 3692.49C2121.19 3766.86 2117.68 3813.39 2139.14 3861.94C2192.9 3899.76 2261.85 3882.23 2295.1 3865.24C2322.41 3839.31 2300.73 3813.28 2295.32 3772.49Z" fill="#EB5E28"/>
<path opacity="0.5" d="M2295.32 3772.49C2268.33 3573.39 2318.05 3381.42 2290.53 3257.86C2429.18 3282.4 2715.49 3332.97 2763.41 3137.49C2781.89 3061.53 2861.89 2969.1 2855.41 2926.82C2734.83 2926.82 2340.89 2922.36 2197.36 2949.77C1962.78 2994.49 1973.3 3156.08 2036.3 3428.8C2060.84 3535.04 2073.81 3553.74 2104.61 3692.49C2121.19 3766.86 2117.68 3813.39 2139.14 3861.94C2192.9 3899.76 2261.85 3882.23 2295.1 3865.24C2322.41 3839.31 2300.73 3813.28 2295.32 3772.49Z" fill="#263238"/>
<path d="M2588.86 3796.5C2600.22 3778.44 2687.98 3730.74 2687.98 3730.74C2726.66 3795.86 2761.36 3863.27 2791.88 3932.59L2673.42 3969.67C2673.42 3969.67 2628.7 3851.32 2588.86 3796.5Z" fill="#EFC2BC"/>
<path d="M2539.14 2191.42C2699.98 2215.65 2596.19 2519.07 2539.14 2615.11C2451.17 2566.35 2334.62 2538.51 2318.16 2467.01C2360.65 2385.84 2337.28 2161.15 2539.14 2191.42Z" fill="#263238"/>
<path d="M2875.38 2062.88C2754.8 2074.99 2536.8 2136.18 2431.3 2204.92C2379.24 2238.91 2357.78 2305.85 2368.83 2374.9C2409.1 2627.75 2436.19 2763 2428.86 2934.26C2481.98 3005.97 2981.31 3063.55 3106.14 2955.5C3123.35 2859.89 3149.48 2616.81 3102.21 2247.63C3085.53 2117.27 2986.09 2051.83 2875.38 2062.88Z" fill="#EB5E28"/>
<path opacity="0.2" d="M3102.21 2247.73C3102.21 2244.23 3101.25 2240.83 3100.61 2237.11C2861.26 2264.31 2790.92 2707.86 3121.22 2836.83C3132.27 2709.88 3135.89 2510.89 3102.21 2247.73Z" fill="black"/>
<path d="M2613.5 1889.28C2629.76 1982.98 2677.25 2069.04 2744.71 2097.08C2744.71 2097.08 2685 2213.95 2542.85 2317.11C2475.18 2255.7 2482.93 2196.1 2482.93 2196.1C2507.69 2162.85 2524.26 2126.94 2490.8 2090.5L2613.5 1889.28Z" fill="#EFC2BC"/>
<path opacity="0.2" d="M2581.63 1999.34L2499.08 2100.7C2505.27 2109.61 2508.95 2120.02 2509.73 2130.84C2510.52 2141.66 2508.38 2152.5 2503.55 2162.21C2529.79 2149.46 2571.43 2123.33 2586.31 2090.92C2610.85 2036.74 2596.82 1995.41 2581.63 1999.34Z" fill="black"/>
<path d="M2584.08 1804.92C2620.09 1906.06 2646.23 1963.11 2618.07 2038.65C2575.58 2152.12 2434.6 2168.48 2369.15 2082.42C2310.19 2004.87 2261.21 1852.52 2341 1764.76C2420.78 1677.01 2548.06 1703.78 2584.08 1804.92Z" fill="#EFC2BC"/>
<path d="M2479.43 1781.98C2464.66 1837.33 2554.75 1860.81 2547 1924.66C2592.57 1921.68 2629.97 1886.84 2643.89 1834.78C2657.81 1782.72 2613.72 1677.22 2548.27 1721.21C2502.8 1730.98 2489.52 1743.94 2479.43 1781.98Z" fill="#263238"/>
<path d="M2461.16 1941.34C2464.02 1949.62 2462.01 1957.91 2456.59 1959.82C2451.17 1961.73 2444.37 1956.53 2441.4 1948.24C2438.42 1939.96 2440.55 1931.67 2445.96 1929.65C2451.38 1927.63 2458.18 1932.94 2461.16 1941.34Z" fill="#263238"/>
<path d="M2364.69 1986.06C2367.56 1994.35 2365.54 2002.64 2360.12 2004.55C2354.7 2006.46 2347.9 2001.26 2344.93 1992.97C2341.95 1984.68 2344.08 1976.4 2349.5 1974.48C2354.92 1972.57 2361.72 1977.67 2364.69 1986.06Z" fill="#263238"/>
<path d="M2495.68 2051.61C2491.79 2054.67 2487.63 2057.37 2483.25 2059.69C2482.95 2059.85 2482.63 2059.96 2482.29 2059.99C2481.95 2060.03 2481.6 2060 2481.28 2059.9C2480.95 2059.8 2480.64 2059.64 2480.38 2059.42C2480.12 2059.2 2479.9 2058.93 2479.75 2058.63C2479.57 2058.33 2479.45 2058 2479.4 2057.66C2479.36 2057.31 2479.39 2056.96 2479.49 2056.63C2479.59 2056.3 2479.76 2055.99 2479.99 2055.73C2480.21 2055.47 2480.49 2055.26 2480.81 2055.12C2490.55 2050.14 2498.98 2042.94 2505.42 2034.1C2511.86 2025.26 2516.13 2015.03 2517.89 2004.23C2517.97 2003.54 2518.31 2002.92 2518.85 2002.48C2519.38 2002.04 2520.07 2001.83 2520.76 2001.89C2521.09 2001.92 2521.42 2002.01 2521.72 2002.17C2522.02 2002.32 2522.28 2002.53 2522.5 2002.79C2522.72 2003.04 2522.88 2003.34 2522.98 2003.66C2523.08 2003.98 2523.12 2004.32 2523.09 2004.66C2520.41 2023.28 2510.58 2040.12 2495.68 2051.61Z" fill="#263238"/>
<path d="M2458.5 1889.17C2457.81 1889.34 2457.1 1889.36 2456.4 1889.23C2455.71 1889.11 2455.04 1888.83 2454.46 1888.43C2449.19 1884.62 2443.09 1882.12 2436.67 1881.12C2430.24 1880.13 2423.67 1880.66 2417.49 1882.69C2416.22 1883.22 2414.8 1883.23 2413.52 1882.71C2412.25 1882.19 2411.23 1881.19 2410.69 1879.93C2410.41 1879.3 2410.27 1878.63 2410.25 1877.94C2410.24 1877.26 2410.37 1876.58 2410.63 1875.94C2410.89 1875.31 2411.27 1874.73 2411.76 1874.25C2412.24 1873.77 2412.82 1873.39 2413.45 1873.13C2421.23 1870.45 2429.54 1869.65 2437.69 1870.82C2445.84 1871.98 2453.59 1875.07 2460.31 1879.82C2461.45 1880.6 2462.23 1881.8 2462.49 1883.15C2462.75 1884.5 2462.46 1885.91 2461.69 1887.05C2461.33 1887.6 2460.86 1888.07 2460.31 1888.44C2459.76 1888.8 2459.15 1889.05 2458.5 1889.17Z" fill="#263238"/>
<path d="M2339.09 1935.6C2340.32 1935.12 2341.68 1935.12 2342.91 1935.6C2343.54 1935.85 2344.12 1936.21 2344.61 1936.69C2345.09 1937.16 2345.48 1937.72 2345.75 1938.34C2346.02 1938.97 2346.16 1939.64 2346.16 1940.32C2346.17 1940.99 2346.04 1941.67 2345.78 1942.29C2342.92 1949.99 2338.27 1956.9 2332.21 1962.45C2326.15 1967.99 2318.86 1972.01 2310.93 1974.16C2310.26 1974.3 2309.57 1974.31 2308.9 1974.18C2308.23 1974.06 2307.59 1973.8 2307.01 1973.42C2306.44 1973.05 2305.95 1972.56 2305.56 1972C2305.18 1971.43 2304.91 1970.8 2304.77 1970.13C2304.52 1968.78 2304.79 1967.38 2305.55 1966.23C2306.3 1965.08 2307.47 1964.27 2308.81 1963.97C2315.08 1962.22 2320.85 1958.99 2325.62 1954.56C2330.39 1950.12 2334.02 1944.6 2336.22 1938.47C2336.76 1937.17 2337.79 1936.14 2339.09 1935.6Z" fill="#263238"/>
<path d="M2391.36 1959.19C2391.36 1959.19 2401.98 2012.31 2397.2 2044.18C2418.45 2047.9 2436.4 2028.24 2436.4 2028.24L2391.36 1959.19Z" fill="#FF5652"/>
<path d="M3075.75 2209.38C3082.13 2227.65 3087.23 2243.7 3092.22 2260.91C3097.21 2278.12 3101.78 2294.9 3106.35 2312.01C3114.96 2346.22 3122.82 2380.85 3128.98 2416.44C3132.06 2434.18 3134.93 2452.03 3137.37 2470.31C3139.82 2488.58 3141.52 2507.17 3142.79 2526.19C3144.07 2545.2 3144.92 2564.75 3144.17 2585.36C3143.75 2607.8 3141.37 2630.16 3137.05 2652.19L3135.99 2657.5C3133.47 2669.7 3128.24 2681.17 3120.69 2691.07C3109.5 2705.44 3096 2717.86 3080.75 2727.83C3068.06 2736.08 3054.39 2742.72 3040.06 2747.59C3017.27 2755.09 2993.58 2759.45 2969.62 2760.55C2949.53 2761.65 2929.39 2761.11 2909.38 2758.96C2890.26 2757.05 2871.99 2754.39 2854.14 2750.89C2819.42 2743.88 2785.21 2734.58 2751.72 2723.05C2718.69 2711.86 2686.4 2698.59 2655.04 2683.32C2644.52 2678.06 2636.15 2669.29 2631.4 2658.52C2626.64 2647.76 2625.79 2635.67 2628.98 2624.35C2632.18 2613.02 2639.23 2603.16 2648.91 2596.47C2658.59 2589.78 2670.3 2586.68 2682.03 2587.7H2684.68C2715.07 2590.57 2747.47 2594.08 2778.49 2596.2C2809.52 2598.32 2840.43 2600.02 2869.97 2599.71C2896.99 2600.09 2923.98 2597.67 2950.5 2592.48C2959.34 2590.91 2967.85 2587.85 2975.68 2583.45C2977.91 2581.86 2978.76 2580.58 2978.33 2580.48C2977.91 2580.37 2975.78 2581.11 2973.66 2583.35L2957.3 2622.23C2957.72 2610.85 2957.4 2599.46 2956.34 2588.13C2954.96 2574.95 2953.58 2560.82 2951.24 2546.37C2946.57 2517.26 2940.62 2486.88 2933.07 2456.18C2925.53 2425.47 2917.99 2394.56 2909.38 2363.64L2883.78 2271.64L2883.14 2269.3C2876.16 2244.05 2879.28 2217.07 2891.83 2194.07C2904.38 2171.07 2925.38 2153.85 2950.39 2146.06C2975.41 2138.26 3002.47 2140.5 3025.87 2152.3C3049.26 2164.09 3067.15 2184.53 3075.75 2209.27V2209.38Z" fill="#EFC2BC"/>
<path d="M2478.58 2678.01C2476.36 2678.02 2474.19 2677.34 2472.37 2676.06C2470.56 2674.78 2469.19 2672.96 2468.47 2670.86C2467.74 2668.76 2467.69 2666.49 2468.32 2664.36C2468.95 2662.23 2470.24 2660.35 2471.99 2658.99L2722.4 2464.89C2723.51 2464.02 2724.77 2463.39 2726.13 2463.01C2727.48 2462.64 2728.9 2462.54 2730.29 2462.72C2731.68 2462.9 2733.03 2463.35 2734.24 2464.05C2735.46 2464.75 2736.53 2465.68 2737.38 2466.8C2739.09 2469.03 2739.85 2471.84 2739.5 2474.63C2739.14 2477.42 2737.69 2479.95 2735.47 2481.67L2485.06 2675.77C2483.21 2677.21 2480.93 2678 2478.58 2678.01Z" fill="#263238"/>
<path d="M2575.47 2574.53L2617.01 2570.49C2633.28 2568.88 2649.7 2571.44 2664.71 2577.93L2706.36 2596.09C2716.31 2601.05 2724.62 2608.78 2730.28 2618.36C2735.94 2627.94 2738.7 2638.95 2738.23 2650.06C2738.23 2684.17 2715.6 2715.4 2686.17 2719.54C2665.14 2721.76 2643.89 2720.25 2623.38 2715.08L2571.01 2711.47C2561.93 2710.3 2553.63 2705.72 2547.81 2698.65C2541.99 2691.59 2539.08 2682.57 2539.67 2673.44L2538.71 2621.38C2538.09 2610.43 2541.48 2599.64 2548.24 2591.01C2555.01 2582.39 2564.69 2576.53 2575.47 2574.53Z" fill="#EFC2BC"/>
<path d="M2731.11 3659.77C2645.38 3480.97 2700.09 3465.03 2622.96 3295.05C2757.67 3309.18 2999.37 3320.86 3080.64 3143.76C3113.26 3072.69 3106.35 2990.56 3106.14 2955.61C3013.71 2905.89 2717.51 2919.38 2574.94 2950.19C2341.21 3000.55 2235.5 3045.81 2330.59 3332.65C2361.82 3426.89 2405.81 3512.09 2498.87 3662.74C2539.03 3727.65 2559.85 3829.01 2598.31 3865.66C2635.71 3897 2672.68 3831.77 2748.32 3840.38C2780.3 3792.99 2748.85 3696.85 2731.11 3659.77Z" fill="#EB5E28"/>
<path opacity="0.4" d="M2731.11 3659.77C2645.38 3480.97 2700.09 3465.03 2622.96 3295.05C2757.67 3309.18 2999.37 3320.86 3080.64 3143.76C3113.26 3072.69 3106.35 2990.56 3106.14 2955.61C3013.71 2905.89 2717.51 2919.38 2574.94 2950.19C2341.21 3000.55 2235.5 3045.81 2330.59 3332.65C2361.82 3426.89 2405.81 3512.09 2498.87 3662.74C2539.03 3727.65 2559.85 3829.01 2598.31 3865.66C2635.71 3897 2672.68 3831.77 2748.32 3840.38C2780.3 3792.99 2748.85 3696.85 2731.11 3659.77Z" fill="#263238"/>
<path d="M2800.17 3894.03C2774.25 3878.62 2693.93 3915.91 2693.93 3915.91C2692.54 3905.65 2688.91 3895.83 2683.3 3887.12C2673.42 3869.49 2624.23 3887.97 2608.94 3909.86C2593.64 3931.74 2638.58 3942.26 2638.58 3942.26C2614.67 3990.71 2630.4 4016.63 2557.52 4036.18C2542.32 4040.21 2547.85 4072.09 2583.97 4072.62C2643.89 4073.47 2638.79 4052.33 2687.77 4038.09C2729.62 4025.87 2783.38 4010.89 2826.52 3997.61C2828.36 3997.21 2830.09 3996.43 2831.62 3995.32C2833.14 3994.21 2834.42 3992.8 2835.37 3991.17C2836.32 3989.54 2836.92 3987.74 2837.13 3985.86C2837.34 3983.99 2837.17 3982.09 2836.61 3980.29L2800.17 3894.03Z" fill="#263238"/>
<path d="M2307.43 3964.89C2287.24 3942.58 2199.7 3954.8 2199.7 3954.8C2201.44 3944.65 2200.97 3934.25 2198.32 3924.31C2194.07 3904.44 2141.59 3907.84 2120.76 3924.31C2099.94 3940.77 2139.57 3963.93 2139.57 3963.93C2102.6 4003.24 2095.69 4017.05 2022.7 4036.18C2007.51 4040.21 2012.93 4072.09 2049.16 4072.62C2108.97 4073.47 2107.48 4069.22 2158.48 4069.96C2202.14 4070.6 2257.81 4071.98 2302.96 4071.98C2304.85 4072.08 2306.74 4071.79 2308.51 4071.13C2310.29 4070.47 2311.9 4069.45 2313.26 4068.13C2314.61 4066.81 2315.68 4065.23 2316.4 4063.48C2317.11 4061.73 2317.46 4059.85 2317.41 4057.96L2307.43 3964.89Z" fill="#263238"/>
<path d="M1598.49 2763H2811.22V2677.79H1598.49V2763Z" fill="#EB5E28"/>
<path opacity="0.3" d="M2365.54 2763H2811.22V2677.79H2365.54V2763Z" fill="#263238"/>
<path d="M2150.62 4088.34H2259.09L2230.93 2763H2178.77L2150.62 4088.34Z" fill="#E0E0E0"/>
<path opacity="0.3" d="M2177.92 2806.77L2232.42 2831.95L2230.93 2763H2178.77L2177.92 2806.77Z" fill="#263238"/>
<path d="M2205.12 2624.88C2169.74 2634.55 1937.71 2662.07 1833.28 2635.51C1857.18 2651.44 1940.37 2678 2012.93 2678H2576.85C2576.85 2678 2635.39 2678 2648.67 2662.28C2568.99 2670.04 2256.43 2660.26 2205.12 2624.88Z" fill="#EB5E28"/>
<path opacity="0.7" d="M2205.12 2624.88C2169.74 2634.55 1937.71 2662.07 1833.28 2635.51C1857.18 2651.44 1940.37 2678 2012.93 2678H2576.85C2576.85 2678 2635.39 2678 2648.67 2662.28C2568.99 2670.04 2256.43 2660.26 2205.12 2624.88Z" fill="white"/>
<path d="M2896.85 2061.71C3106.88 2060.01 3088.93 2231.69 3136.42 2351.64C3057.27 2475.62 2886.22 2484.65 2886.22 2484.65C2886.22 2484.65 2666.62 2063.62 2896.85 2061.71Z" fill="#263238"/>
<path d="M2661.1 1895.44C2662.46 1908.06 2661.07 1920.83 2657.01 1932.87C2652.96 1944.9 2646.34 1955.91 2637.62 1965.13C2614.99 1987.13 2584.5 1963.33 2575.58 1928.06C2567.18 1896.18 2568.78 1846.68 2599.06 1838.6C2629.33 1830.53 2658.55 1861.34 2661.1 1895.44Z" fill="#EFC2BC"/>
<path d="M2496.64 1796.96C2453.29 1869.84 2311.04 1881.2 2257.71 1847.21C2206.18 1814.38 2205.44 1736.61 2257.71 1698.47C2270.24 1772.31 2375.53 1782.19 2435.13 1758.6C2494.73 1735.02 2535.2 1732.68 2496.64 1796.96Z" fill="#263238"/>
<path d="M2460.94 1777.62C2389.66 1693.48 2455.63 1605.83 2539.77 1608.49C2486.12 1673.61 2523.31 1715.36 2554.75 1722.69C2511.41 1783.89 2460.94 1777.62 2460.94 1777.62Z" fill="#263238"/>
<path d="M2436.4 1846.36C2342.59 1895.02 2219.89 1876.1 2205.12 1828.3C2252.08 1845.83 2301.8 1829.04 2306.26 1810.34C2342.49 1836.26 2436.4 1846.36 2436.4 1846.36Z" fill="#263238"/>
<path d="M2548.17 1721.21C2586.73 1687.32 2653.56 1730.13 2662.37 1768.27C2626.68 1752.02 2607.02 1771.99 2603.94 1786.65C2575.05 1767 2548.17 1721.21 2548.17 1721.21Z" fill="#263238"/>
<path d="M2313.16 1779.53C2266.95 1715.79 2304.98 1622.09 2386.79 1605.62C2362.46 1648.11 2448.83 1706.55 2485.48 1685.09C2524.9 1776.24 2489.63 1800.78 2422.8 1819.9C2372.98 1834.25 2329.31 1801.52 2313.16 1779.53Z" fill="#263238"/>
<path d="M2467.42 1702.08C2485.27 1656.72 2602.77 1637.06 2629.97 1680.84C2589.17 1690.82 2604.05 1744.58 2597.25 1776.45C2586.52 1826.6 2439.69 1772.31 2467.42 1702.08Z" fill="#263238"/>
<path d="M2673.85 1949.62C2670 1945.82 2665.12 1943.24 2659.81 1942.2C2654.51 1941.16 2649.01 1941.7 2644.01 1943.76C2639.02 1945.83 2634.74 1949.32 2631.71 1953.8C2628.68 1958.28 2627.04 1963.55 2627 1968.96C2627.02 1976.24 2629.94 1983.21 2635.09 1988.35C2640.25 1993.48 2647.23 1996.37 2654.51 1996.37C2659.94 1996.4 2665.26 1994.81 2669.78 1991.81C2674.31 1988.81 2677.83 1984.52 2679.91 1979.5C2681.98 1974.48 2682.52 1968.96 2681.44 1963.64C2680.36 1958.32 2677.72 1953.44 2673.85 1949.62ZM2654.51 1982.56C2651.82 1982.58 2649.18 1981.8 2646.93 1980.32C2644.68 1978.84 2642.92 1976.72 2641.87 1974.24C2640.83 1971.75 2640.54 1969.02 2641.06 1966.37C2641.57 1963.73 2642.86 1961.29 2644.75 1959.38C2646.65 1957.47 2649.07 1956.16 2651.71 1955.63C2654.35 1955.1 2657.09 1955.36 2659.59 1956.39C2662.08 1957.41 2664.21 1959.15 2665.71 1961.39C2667.2 1963.63 2668.01 1966.26 2668.01 1968.96C2668.05 1970.77 2667.73 1972.57 2667.07 1974.25C2666.42 1975.94 2665.43 1977.48 2664.18 1978.78C2662.93 1980.08 2661.43 1981.13 2659.77 1981.85C2658.11 1982.57 2656.32 1982.95 2654.51 1982.98V1982.56Z" fill="#EFC2BC"/>
<path d="M2668.96 1954.51C2665.62 1951.22 2661.24 1949.19 2656.57 1948.76C2651.91 1948.34 2647.23 1949.54 2643.35 1952.17C2639.47 1954.79 2636.61 1958.69 2635.28 1963.18C2633.94 1967.67 2634.2 1972.49 2636.01 1976.81C2637.82 1981.14 2641.08 1984.7 2645.22 1986.9C2649.36 1989.09 2654.13 1989.79 2658.73 1988.86C2663.33 1987.94 2667.46 1985.45 2670.43 1981.82C2673.4 1978.19 2675.02 1973.65 2675.02 1968.96C2675.01 1966.27 2674.47 1963.61 2673.43 1961.13C2672.39 1958.65 2670.87 1956.4 2668.96 1954.51ZM2654.51 1982.98C2651.82 1983 2649.18 1982.22 2646.93 1980.74C2644.68 1979.26 2642.92 1977.15 2641.87 1974.66C2640.83 1972.18 2640.54 1969.44 2641.06 1966.8C2641.57 1964.15 2642.85 1961.72 2644.75 1959.81C2646.65 1957.89 2649.07 1956.59 2651.71 1956.06C2654.35 1955.52 2657.09 1955.78 2659.58 1956.81C2662.08 1957.84 2664.21 1959.58 2665.71 1961.82C2667.2 1964.06 2668 1966.69 2668 1969.38C2667.98 1972.96 2666.55 1976.39 2664.03 1978.93C2661.51 1981.47 2658.09 1982.93 2654.51 1982.98Z" fill="#263238"/>
</svg>
