<svg width="20" height="20" viewBox="0 0 20 20" fill="none" xmlns="http://www.w3.org/2000/svg">
<path d="M17.3832 4.49177L17.2066 4.66837L17.3832 4.49177C17.2484 4.35697 17.0656 4.28125 16.875 4.28125H3.125C2.93438 4.28125 2.75156 4.35698 2.61677 4.49177C2.48198 4.62656 2.40625 4.80938 2.40625 5C2.40625 5.19062 2.48198 5.37344 2.61677 5.50823C2.75156 5.64302 2.93438 5.71875 3.125 5.71875H16.875C17.0656 5.71875 17.2484 5.64302 17.3832 5.50823L17.2065 5.33146L17.3832 5.50823C17.518 5.37344 17.5938 5.19062 17.5938 5C17.5938 4.80938 17.518 4.62656 17.3832 4.49177ZM2.61677 14.4918L2.79337 14.6684L2.61677 14.4918C2.48197 14.6266 2.40625 14.8094 2.40625 15C2.40625 15.1906 2.48197 15.3734 2.61677 15.5082L2.79285 15.3321L2.61677 15.5082C2.75156 15.643 2.93438 15.7188 3.125 15.7188H16.875C17.0656 15.7188 17.2484 15.643 17.3832 15.5082L17.2065 15.3315L17.3832 15.5082C17.518 15.3734 17.5938 15.1906 17.5938 15C17.5938 14.8094 17.518 14.6266 17.3832 14.4918L17.2065 14.6685L17.3832 14.4918C17.2484 14.357 17.0656 14.2812 16.875 14.2812H3.125C2.93438 14.2812 2.75156 14.357 2.61677 14.4918ZM17.3832 10.5082C17.518 10.3734 17.5938 10.1906 17.5938 10C17.5938 9.80938 17.518 9.62656 17.3832 9.49177C17.2484 9.35698 17.0656 9.28125 16.875 9.28125H3.125C2.93438 9.28125 2.75156 9.35698 2.61677 9.49177C2.48198 9.62656 2.40625 9.80938 2.40625 10C2.40625 10.1906 2.48197 10.3734 2.61677 10.5082C2.75156 10.643 2.93438 10.7188 3.125 10.7188H16.875C17.0656 10.7188 17.2484 10.643 17.3832 10.5082Z" fill="#252422" stroke="#252422" stroke-width="0.5"/>
</svg>
