<svg width="20" height="20" viewBox="0 0 20 20" fill="none" xmlns="http://www.w3.org/2000/svg">
<path d="M2.49984 2.5C2.27882 2.5 2.06686 2.5878 1.91058 2.74408C1.7543 2.90036 1.6665 3.11232 1.6665 3.33333V8.33333C1.6665 8.55435 1.7543 8.76631 1.91058 8.92259C2.06686 9.07887 2.27882 9.16667 2.49984 9.16667H8.33317C8.55418 9.16667 8.76615 9.07887 8.92243 8.92259C9.07871 8.76631 9.1665 8.55435 9.1665 8.33333V3.33333C9.1665 3.11232 9.07871 2.90036 8.92243 2.74408C8.76615 2.5878 8.55418 2.5 8.33317 2.5H2.49984ZM3.33317 7.5V4.16667H7.49984V7.5H3.33317ZM2.49984 10.8333C2.27882 10.8333 2.06686 10.9211 1.91058 11.0774C1.7543 11.2337 1.6665 11.4457 1.6665 11.6667V16.6667C1.6665 16.8877 1.7543 17.0996 1.91058 17.2559C2.06686 17.4122 2.27882 17.5 2.49984 17.5H8.33317C8.55418 17.5 8.76615 17.4122 8.92243 17.2559C9.07871 17.0996 9.1665 16.8877 9.1665 16.6667V11.6667C9.1665 11.4457 9.07871 11.2337 8.92243 11.0774C8.76615 10.9211 8.55418 10.8333 8.33317 10.8333H2.49984ZM3.33317 15.8333V12.5H7.49984V15.8333H3.33317ZM10.8332 3.33333C10.8332 3.11232 10.921 2.90036 11.0772 2.74408C11.2335 2.5878 11.4455 2.5 11.6665 2.5H17.4998C17.7208 2.5 17.9328 2.5878 18.0891 2.74408C18.2454 2.90036 18.3332 3.11232 18.3332 3.33333V8.33333C18.3332 8.55435 18.2454 8.76631 18.0891 8.92259C17.9328 9.07887 17.7208 9.16667 17.4998 9.16667H11.6665C11.4455 9.16667 11.2335 9.07887 11.0772 8.92259C10.921 8.76631 10.8332 8.55435 10.8332 8.33333V3.33333ZM12.4998 4.16667V7.5H16.6665V4.16667H12.4998ZM11.6665 10.8333C11.4455 10.8333 11.2335 10.9211 11.0772 11.0774C10.921 11.2337 10.8332 11.4457 10.8332 11.6667V16.6667C10.8332 16.8877 10.921 17.0996 11.0772 17.2559C11.2335 17.4122 11.4455 17.5 11.6665 17.5H17.4998C17.7208 17.5 17.9328 17.4122 18.0891 17.2559C18.2454 17.0996 18.3332 16.8877 18.3332 16.6667V11.6667C18.3332 11.4457 18.2454 11.2337 18.0891 11.0774C17.9328 10.9211 17.7208 10.8333 17.4998 10.8333H11.6665ZM12.4998 15.8333V12.5H16.6665V15.8333H12.4998Z" fill="#252422"/>
</svg>
